<?xml version="1.0" encoding="utf-8"?>
<!-- Generator: Adobe Illustrator 23.0.1, SVG Export Plug-In . SVG Version: 6.00 Build 0)  -->
<svg version="1.1" id="Layer_1" xmlns="http://www.w3.org/2000/svg" xmlns:xlink="http://www.w3.org/1999/xlink" x="0px" y="0px"
	 viewBox="0 0 1280 800" style="enable-background:new 0 0 1280 800;" xml:space="preserve">
<style type="text/css">
	.st0{fill:none;}
	.st1{fill:#6A39D9;}
	.st2{opacity:0.2;}
	.st3{fill:#0000FF;}
	.st4{display:none;fill:url(#Geo_Triangles_Pattern_9);}
</style>
<pattern  width="272.82" height="317.93" patternUnits="userSpaceOnUse" id="Geo_Triangles_Pattern_9" viewBox="51.46 -329.52 272.82 317.93" style="overflow:visible;">
	<g>
		<rect x="51.46" y="-329.52" class="st0" width="272.82" height="317.93"/>
		<g>
			<path d="M343.46-66.51l-50.1,28.93l50.1,28.93V-66.51 M348.46-75.17V0l-65.1-37.59L348.46-75.17L348.46-75.17z"/>
		</g>
		<g>
			<polygon points="283.36,-37.59 218.26,0 218.26,-75.17 			"/>
			<path d="M207.05-66.51l-50.1,28.93l50.1,28.93V-66.51 M212.05-75.17V0l-65.1-37.59L212.05-75.17L212.05-75.17z"/>
		</g>
		<g>
			<polygon points="146.95,-37.59 81.85,0 81.85,-75.17 			"/>
			<path d="M70.64-66.51l-50.1,28.93l50.1,28.93V-66.51 M75.64-75.17V0l-65.1-37.59L75.64-75.17L75.64-75.17z"/>
		</g>
		<g>
			<polygon points="337.92,-101.17 272.82,-63.59 272.82,-138.76 			"/>
			<path d="M261.61-130.1l-50.1,28.93l50.1,28.93V-130.1 M266.61-138.76v75.17l-65.1-37.59L266.61-138.76L266.61-138.76z"/>
		</g>
		<g>
			<polygon points="201.51,-101.17 136.41,-63.59 136.41,-138.76 			"/>
			<path d="M125.2-130.1l-50.1,28.93l50.1,28.93V-130.1 M130.2-138.76v75.17l-65.1-37.59L130.2-138.76L130.2-138.76z"/>
		</g>
		<g>
			<polygon points="65.1,-101.17 0,-63.59 0,-138.76 			"/>
		</g>
		<g>
			<path d="M316.18-193.68l-50.1,28.93l50.1,28.93V-193.68 M321.18-202.34v75.17l-65.1-37.59L321.18-202.34L321.18-202.34z"/>
		</g>
		<g>
			<polygon points="256.08,-164.76 190.97,-127.17 190.97,-202.34 			"/>
			<path d="M179.77-193.68l-50.1,28.93l50.1,28.93V-193.68 M184.77-202.34v75.17l-65.1-37.59L184.77-202.34L184.77-202.34z"/>
		</g>
		<g>
			<polygon points="119.67,-164.76 54.56,-127.17 54.56,-202.34 			"/>
		</g>
		<g>
			<path d="M370.74-257.27l-50.1,28.93l50.1,28.93V-257.27 M375.74-265.93v75.17l-65.1-37.59L375.74-265.93L375.74-265.93z"/>
		</g>
		<g>
			<polygon points="310.64,-228.34 245.54,-190.76 245.54,-265.93 			"/>
			<path d="M234.33-257.27l-50.1,28.93l50.1,28.93V-257.27 M239.33-265.93v75.17l-65.1-37.59L239.33-265.93L239.33-265.93z"/>
		</g>
		<g>
			<polygon points="174.23,-228.34 109.13,-190.76 109.13,-265.93 			"/>
			<path d="M97.92-257.27l-50.1,28.93l50.1,28.93V-257.27 M102.92-265.93v75.17l-65.1-37.59L102.92-265.93L102.92-265.93z"/>
		</g>
		<g>
			<polygon points="365.2,-291.93 300.1,-254.34 300.1,-329.52 			"/>
			<path d="M288.9-320.86l-50.1,28.93L288.9-263V-320.86 M293.9-329.52v75.17l-65.1-37.59L293.9-329.52L293.9-329.52z"/>
		</g>
		<g>
			<polygon points="228.79,-291.93 163.69,-254.34 163.69,-329.52 			"/>
			<path d="M152.49-320.86l-50.1,28.93l50.1,28.93V-320.86 M157.49-329.52v75.17l-65.1-37.59L157.49-329.52L157.49-329.52z"/>
		</g>
		<g>
			<polygon points="92.38,-291.93 27.28,-254.34 27.28,-329.52 			"/>
		</g>
		<g>
			<path d="M343.46-384.44l-50.1,28.93l50.1,28.93V-384.44 M348.46-393.1v75.17l-65.1-37.59L348.46-393.1L348.46-393.1z"/>
		</g>
		<g>
			<polygon points="283.36,-355.52 218.26,-317.93 218.26,-393.1 			"/>
			<path d="M207.05-384.44l-50.1,28.93l50.1,28.93V-384.44 M212.05-393.1v75.17l-65.1-37.59L212.05-393.1L212.05-393.1z"/>
		</g>
		<g>
			<polygon points="146.95,-355.52 81.85,-317.93 81.85,-393.1 			"/>
			<path d="M70.64-384.44l-50.1,28.93l50.1,28.93V-384.44 M75.64-393.1v75.17l-65.1-37.59L75.64-393.1L75.64-393.1z"/>
		</g>
	</g>
</pattern>
<rect x="-5" y="-91" class="st1" width="1293.9" height="956"/>
<g class="st2">
	<path class="st3" d="M1291.46,864.44c-259.28,0-518.55,0-777.83,0c-0.02-0.81,0.09-1.66-0.12-2.42c-0.13-0.47-0.73-1.1-1.16-1.13
		c-0.45-0.04-1.2,0.45-1.38,0.89c-0.34,0.82-0.38,1.77-0.54,2.66c-0.43,0-0.85,0-1.28,0c-1.44-1.92-1.64-1.92-2.56,0
		c-23.08,0-46.17,0-69.25,0c2.38-1.35,4.64-3.01,7.17-3.96c2.67-1,4.13-2.77,5.22-5.16c0.55-1.22,1.1-2.63,2.09-3.45
		c4.43-3.67,7.1-8.63,10.34-13.16c1.06-1.49,1.68-3.27,2.51-4.92c-1.3-0.14-2.18,0.1-2.99,0.48c-5.67,2.71-11.34,5.41-16.97,8.19
		c-12.2,6.02-24.42,12.03-36.54,18.21c-2.1,1.07-4.73,1.48-6.09,3.77c-82.08,0-164.16,0-246.24,0c0.16-0.82,0.24-1.67,0.51-2.45
		c1.27-3.67,0.07-6.86-3.41-8.34c-2.91-1.24-5.94-2.21-8.91-3.31c-0.9-0.33-1.84-0.59-2.68-1.02c-3.69-1.9-7.5-3.49-11.58-4.45
		c-1.33-0.31-2.54-1.06-3.83-1.54c-1.98-0.73-3.94-1.57-5.98-2.07c-3.58-0.88-6.83-2.62-10.46-3.47c-4.17-0.98-8.41-1.75-12.54-2.94
		c-1.92-0.55-3.99-0.58-5.97-0.96c-3.7-0.72-7.22-2.52-11.16-1.86c-0.28,0.05-0.68-0.06-0.91-0.24c-2.06-1.64-4.1-0.42-6.08,0.1
		c-1.52,0.39-2.04,1.92-0.97,2.92c3,2.8,6.15,5.45,9.3,8.09c0.42,0.35,1.2,0.36,1.81,0.39c2.73,0.11,5.16,0.91,7.5,2.36
		c3.4,2.11,6.56,4.75,10.77,5.32c0.4,0.05,0.75,0.39,1.13,0.57c3.19,1.45,6.34,2.99,9.58,4.31c5.09,2.07,10.23,4,15.36,5.95
		c1.48,0.56,3.03,0.94,4.52,1.49c0.77,0.29,1.46,0.77,2.19,1.16c-45.1,0-90.2,0-135.3,0c0-29.81,0-59.63,0-89.44
		c1.28,0.01,2.57,0,3.85,0.04c4.26,0.13,8.51,0.38,12.77,0.39c3.73,0.01,7.46-0.23,11.19-0.4c4.12-0.18,8.15-1.58,12.34-0.92
		c0.2,0.03,0.41-0.09,0.63-0.12c6.99-0.94,13.99-1.47,21.01-0.3c2.92,0.49,5.83,1.09,8.77,1.47c4.21,0.54,8.45,0.92,12.68,1.38
		c1.02,0.11,2.18,0.02,2.76,1.54c-1.86,1.15-3.73,2.28-5.58,3.46c-1.25,0.79-2.66,1.46-3.65,2.51c-1.7,1.8-2.17,4.18-1.47,6.46
		c0.63,2.06,2.74,2.43,4.68,2.71c0.32,0.05,0.64,0.01,0.96,0.04c3.08,0.3,6.16,0.51,9.22,0.95c1.75,0.25,3.25-0.04,4.94-0.54
		c2.9-0.86,6-1.48,9-1.41c2.39,0.05,4.72,0.09,6.93-0.66c4.56-1.54,9.18-1.6,13.92-1.28c2.29,0.15,4.86,0.16,6.9-0.7
		c4.1-1.73,7.77-4.3,10.85-7.55c1.25-1.32,2.74-2.13,4.53-1.95c5.38,0.52,10.43-1.63,15.72-1.79c1.17-0.04,2.65,0.1,3.42-0.53
		c2.29-1.85,4.76-1.25,7.24-1.02c0.84,0.08,1.66,0.44,2.5,0.47c1.47,0.05,3.24,0.44,4.37-0.2c2.28-1.3,4.48-1.07,6.81-0.69
		c0.63,0.1,1.4,0.39,1.89,0.16c2.75-1.34,5.43,0.08,8.12,0.12c2.33,0.04,4.64,0.55,6.97,0.79c2.31,0.24,4.63,0.59,6.94,0.58
		c3.59-0.01,7.19-0.28,10.78-0.43c0.32-0.01,0.64,0.07,0.95,0.1c4.35,0.38,8.7,0.91,13.06,1.09c4.08,0.17,8.08,0.03,12.21,0.91
		c4.56,0.96,9.49,0.52,14.24,0.24c2.39-0.14,4.74-0.97,7.22-0.64c1.56,0.21,3.16,0.26,4.74,0.28c1.35,0.02,2.73,0,4.05-0.22
		c2.79-0.46,5.32-2.21,8.37-1.57c0.64,0.14,1.41-0.43,2.14-0.54c1.33-0.22,2.68-0.56,4-0.47c4.98,0.33,9.95,1.53,14.95,0.04
		c0.58-0.17,1.28-0.12,1.89-0.02c3.57,0.58,7.12,1.27,10.7,1.8c4.85,0.72,9.71,1.76,14.58,1.86c5,0.11,9.42,2.68,14.38,2.57
		c0.2,0,0.42,0.11,0.59,0.23c2.79,2.02,6.23,2.03,9.39,2.81c1.65,0.41,2.65,1.11,3.28,2.59c0.45,1.06,0.9,2.16,1.6,3.05
		c1.46,1.85,2.56,1.71,3.9-0.25c1.22-1.78,2.51-3.51,3.9-5.44c0.61,0.67,0.97,0.93,1.13,1.28c0.68,1.42,1.34,2.85,1.93,4.31
		c1.11,2.73,2.82,3.71,5.7,3.44c4.53-0.43,9.06-1.34,13.6-0.06c0.3,0.08,0.67,0.11,0.95,0c3.45-1.31,7.29-1.84,10.02-4.67
		c0.73-0.76,1.51-1.5,2.38-2.1c1.09-0.75,2.38-0.61,3.23,0.29c0.43,0.45,0.52,1.57,0.28,2.22c-0.97,2.64-2.02,5.26-3.25,7.8
		c-0.95,1.97-1.02,2.75,0.78,4.03c1.81,1.28,3.74,2.41,5.71,3.44c1.56,0.82,3.15,0.61,4.4-0.71c1.61-1.69,3.74-2.36,5.86-3.1
		c1.81-0.63,3.61-1.29,5.4-1.97c1.94-0.73,3.13-2.05,3.52-4.12c0.27-1.43,0.76-2.83,1.24-4.22c0.6-1.75-0.02-3.14-1.32-4.22
		c-0.7-0.59-1.66-0.91-2.54-1.25c-2.01-0.77-2.63-1.61-1.76-3.54c0.76-1.67,1.79-3.49,3.23-4.55c2.88-2.12,4.88-4.64,5.82-8.02
		c0.14-0.5,0.38-0.98,0.62-1.45c1.06-2.15,2.58-3.46,5.25-3.34c1.45,0.07,3.09-0.11,4.36-0.73c3.05-1.48,6.05-3.12,8.85-5.02
		c2.72-1.83,5.1-4.05,8.6-4.58c1.58-0.24,2.84-1.58,3.07-3.29c0.21-1.57-1.09-2.35-2.17-3.24c-2.35-1.94-4.65-3.94-6.93-5.96
		c-0.81-0.72-1.03-1.75-0.18-2.49c0.57-0.5,1.51-0.62,2.29-0.88c1.5-0.48,3.18-0.66,4.48-1.45c2.71-1.66,5.2-3.67,7.82-5.48
		c2.43-1.68,3.1-3.87,2.21-6.61c-0.29-0.9-0.57-1.81-0.74-2.74c-0.17-0.99-0.47-2.05,0.62-3.04c0.45,0.41,0.89,0.69,1.17,1.08
		c2.58,3.52,5.28,6.88,9.84,8.1c0.54,0.14,1.15,0.69,1.37,1.19c0.89,2.01,1.97,4.03,2.39,6.15c0.81,4.14,2.77,7.66,5.16,11.04
		c2.96,4.19,7.95,6.33,12.66,5.35c2.46-0.51,3.26-1.39,3.2-3.9c-0.04-1.67-0.63-3.37-0.42-4.99c0.29-2.23-0.7-3.78-2.28-4.86
		c-2.32-1.58-2.78-3.53-2.09-5.99c0.45-1.61,0.87-3.22,1.35-4.82c0.45-1.5,1.07-2.96,1.42-4.48c0.36-1.53,0.89-3,2.6-3.18
		c1.51-0.16,1.99,1.31,2.58,2.43c2.41,4.48,5.14,8.7,9.66,11.47c0.52,0.32,1.09,0.83,1.28,1.37c0.87,2.57,2.85,3.18,5.28,3.13
		c1.77-0.04,2.79,0.73,2.99,2.55c0.12,1.04,0.37,2.07,0.68,3.07c0.73,2.35,1.66,2.62,3.68,1.13c0.34-0.25,0.66-0.54,0.95-0.84
		c4.51-4.73,9.08-9.41,13.5-14.23c2.22-2.42,2.05-3.25-0.38-5.51c-4.43-4.11-8.86-8.21-12.37-13.15c-1.68-2.37-4.18-3.56-7.07-3.85
		c-1.48-0.15-2.99-0.2-4.48-0.08c-2.09,0.17-3.76-0.49-5.17-1.96c-0.51-0.53-1.09-1.01-1.59-1.55c-2.9-3.19-6.4-3.79-10.49-2.64
		c-2.76,0.78-5.61,1.26-8.43,1.76c-2.83,0.5-5.68,0.97-8.55,1.23c-1.19,0.11-2.54-0.17-3.64-0.66c-1.34-0.59-2.43-1.73-3.76-2.38
		c-2.27-1.11-4.56-2.36-6.99-2.95c-3.13-0.76-6.14-0.1-8.59,2.26c-1.06,1.02-2.34,1.83-3.47,2.79c-1.77,1.51-3.76,2.25-6.15,2.21
		c-4.38-0.09-8.44,1.21-12.27,3.17c-3.22,1.65-6.29,3.58-9.57,5.11c-5.88,2.74-11.74,5.56-17.83,7.76c-3.33,1.2-6.52,2.46-9.62,4.15
		c-4.1,2.23-8.27,4.42-12.62,6.09c-9.95,3.81-20.05,7.23-30.04,10.93c-4.43,1.64-8.99,2.6-13.65,3.32
		c-5.69,0.87-11.29-0.14-16.93-0.48c-5.11-0.31-10.25-0.93-15.34-0.65c-14.01,0.78-27.99-0.1-41.96-0.58
		c-11.94-0.41-23.86-1.56-35.79-2.15c-8.1-0.41-16.23-0.33-24.34-0.64c-10.67-0.41-21.34-0.84-32-1.54
		c-4.77-0.32-9.53-1.18-14.24-2.05c-6.39-1.18-12.73-2.64-19.11-3.93c-5.2-1.05-10.54-1.65-15.61-3.15
		c-7.18-2.12-14.51-3.51-21.79-5.14c-3.32-0.74-6.5-2.17-9.84-2.67c-3.88-0.59-7.32-2.14-10.84-3.61c-1.27-0.53-2.58-0.98-3.86-1.51
		c-4-1.67-8.46-2.16-12.12-4.69c-1.39-0.96-2.9-1.78-4.41-2.55c-7.48-3.79-15.42-6.18-23.79-6.92c-4.78-0.42-9.58-0.37-14.35,0.62
		c-11.12,2.3-21.21,6.94-30.89,12.65c-3.09,1.83-6.43,3.27-9.65,4.88c0-124.29,0-248.58,0-372.88c1.48-0.19,2.95-0.43,4.44-0.58
		c7.43-0.71,14.88-1.33,22.31-2.11c8.49-0.88,16.96-1.94,25.44-2.83c8.7-0.91,17.4-1.74,26.11-2.57c1.16-0.11,2.36-0.15,3.52,0
		c2.15,0.28,3.79,2.35,3.66,4.45c-0.25,4.17-0.6,8.34-0.75,12.52c-0.09,2.51,0.04,5.03,0.18,7.54c0.08,1.48,0.79,2.63,2.44,2.86
		c3.14,0.45,5.38-1.51,5.36-4.64c0-0.63-0.04-1.26-0.01-1.88c0.31-6.48,0.62-12.97,0.96-19.45c0.2-3.76,0.25-7.5,0.21-11.27
		c-0.07-6.15,1.11-12.33,0.92-18.47c-0.24-7.67,1.46-15.19,1.03-22.9c-0.31-5.59,0.84-11.27,1.38-16.9
		c0.21-2.19,0.33-4.41,0.85-6.53c0.96-3.87,2.18-7.67,3.31-11.5c0.97-3.28,2.84-5.96,6.14-7.22c2.93-1.11,5.62-2.44,7.96-4.55
		c1.32-1.2,2.96-0.66,3.53,1c0.23,0.68,0.23,1.44,0.26,2.17c0.15,2.85-1.1,5.36-2.34,7.76c-2.88,5.6-3.96,11.45-3.48,17.68
		c0.19,2.52,1.15,4.68,2.4,6.75c1.05,1.74,2.54,2.33,4.4,1.58c1.54-0.62,3.18-1.47,4.22-2.68c2.82-3.28,5.46-6.72,7.95-10.25
		c3.18-4.51,6.79-8.35,12.44-9.8c0.92-0.24,1.77-0.75,2.68-1.05c0.65-0.21,1.35-0.29,2.54-0.52c-0.22,1.59-0.3,2.8-0.56,3.97
		c-0.38,1.74-1.11,3.42-1.28,5.17c-0.36,3.86-1.02,7.81-0.53,11.6c0.59,4.55,0.77,9.15,1.47,13.65c0.5,3.2,0.99,6.12-0.36,9.18
		c-0.64,1.45-0.8,2.99,0.17,4.52c1.72,2.71,3.23,5.45,1.39,8.81c-0.62,1.13,0.16,2.3,1.45,2.73c1.17,0.4,2.26-0.14,2.67-1.17
		c0.4-1.01,0.34-2.21,0.45-3.32c0.25-2.57,0.03-5.29,0.84-7.67c0.75-2.23,1.33-4.35,1.4-6.69c0.05-1.65,0.06-3.5,0.82-4.88
		c2.66-4.89,5.67-9.6,8.48-14.42c1.05-1.8,1.92-3.69,2.86-5.54c1.47-2.9,2.84-5.86,4.44-8.69c1.19-2.12,3.36-2.8,5.52-2
		c2.68,0.98,4.49,0.18,6.24-1.7c0.9-0.97,1.91-2,3.95-1.57c-0.36,1.25-0.66,2.42-1.03,3.56c-0.32,0.99-0.85,1.92-1.08,2.93
		c-0.66,2.96-1.08,5.98-1.84,8.92c-0.8,3.11-0.87,6.18-0.58,9.36c0.29,3.23,0.56,6.53,0.21,9.73c-0.97,8.88-0.46,17.72,0.4,26.55
		c0.13,1.3,0.83,2.61,1.51,3.78c0.75,1.31,2.01,1.41,2.81,0.16c0.83-1.3,1.41-2.8,1.81-4.29c0.9-3.33,1.67-6.71,2.4-10.08
		c0.89-4.1,2.31-8.22,2.34-12.33c0.02-3.29,0.26-6.19,2.17-8.86c2.44-3.41,4.52-6.99,7.9-9.8c3.8-3.17,6.83-7.21,8.49-11.98
		c1.14-3.27,3.95-5.1,6.23-7.39c0.4-0.4,1.16-0.52,1.78-0.63c1.36-0.25,2.75-0.56,4.12-0.54c0.97,0.01,2.37,0.26,2.77,0.9
		c0.41,0.64,0.01,1.97-0.37,2.86c-0.44,1.05-1.29,1.92-1.88,2.92c-0.58,0.99-1.28,2-1.54,3.08c-1.02,4.18-2.15,8.36-2.74,12.61
		c-0.6,4.26-0.57,8.59,1.05,12.75c0.29,0.74,0.34,1.65,0.23,2.45c-0.38,2.8-1.1,5.56-1.29,8.37c-0.22,3.34-0.01,6.7,0.02,10.05
		c0.02,2.08,0.1,4.16,0.05,6.24c-0.04,2.05-0.09,4.07,1.27,5.86c3.13-2.64,4.27-5.41,4.05-8.84c-0.09-1.43,0.2-2.9,0.46-4.33
		c0.32-1.75,0.79-3.47,1.18-5.21c1.13-5.07,2.8-9.84,6.7-13.66c1.13-1.11,1.6-2.88,2.32-4.37c1.19-2.44,2.05-5.1,3.59-7.31
		c1.35-1.94,2.51-3.81,3.14-6.09c0.9-3.31,3.03-5.74,6.18-7.25c2.22-1.06,2.79-0.93,4.35,0.94c1.56,1.86,2.95,3.91,4.73,5.54
		c2.22,2.05,2.42,4.17,1.43,6.83c-0.72,1.95-1.35,4.04-1.42,6.09c-0.14,4.5-0.32,9.08,0.31,13.51c0.58,4.1,1.45,8.13,1.34,12.32
		c-0.05,1.74,1.37,2.32,2.97,1.41c2.08-1.19,3.62-2.84,4.37-5.21c0.5-1.57,1.24-3.1,2.1-4.52c2.31-3.81,4.15-7.77,4.63-12.24
		c0.09-0.89,0.36-1.77,0.66-3.21c1.99,1.23,3.55,2.23,5.14,3.17c2.52,1.5,2.54,1.49,1.71,4.16c-0.69,2.2-1.78,4.34-2.04,6.58
		c-0.61,5.31-0.77,10.66-1.21,15.99c-0.29,3.56,0.8,6.85,1.8,10.16c0.13,0.41,0.53,0.75,1.09,1.5c0.7-2.32,0.5-4.12,0.09-5.94
		c-0.16-0.69-0.36-1.42-0.31-2.11c0.17-2.08,0.43-4.15,0.69-6.22c0.8-6.45,1.62-12.9,2.42-19.35c0.35-2.86,1.97-4.91,4.56-6
		c1.52-0.64,3.3-0.67,4.96-0.94c1.45-0.24,2.53,0.35,3.13,1.64c1.42,3.05,2.88,6.09,4.14,9.2c0.37,0.9,0.22,2.04,0.17,3.06
		c-0.15,2.71-0.68,5.43-0.52,8.11c0.29,4.81,1.17,9.58,1.46,14.39c0.34,5.65,3.03,10.16,6.39,14.46c1.45,1.86,3.14,2.75,5.38,1.89
		c0.74-1.57,1.46-2.96,2.06-4.4c0.27-0.64,0.62-1.51,0.38-2.06c-1.53-3.63-3.12-7.24-4.87-10.77c-1.64-3.29-3.58-6.44-5.23-9.73
		c-1.2-2.38-0.78-3.36,1.72-4.91c2.21,2.46,4.54,4.79,6.23,7.75c1.22,2.13,2.84,4.41,4.9,5.62c2.6,1.53,5.4,3.05,8.94,2.54
		c1.95-0.28,3.97,0.11,5.81-1.01c0.39-0.24,1.02-0.16,1.53-0.12c3.33,0.26,4.96-1.53,4.46-4.83c-0.31-2,0.01-3.78,2.15-4.75
		c0.36-0.16,0.65-0.47,0.95-0.7c-0.49-1.05-1.33-2-1.27-2.88c0.22-3.41,0.1-7,3.53-9.3c1.1-0.73,1.89-1.76,1.21-3.22
		c-0.7-1.53-0.07-2.67,1.21-3.5c1.05-0.68,2.13-1.36,3.3-1.79c1.12-0.41,1.88-0.91,1.95-2.16c0.03-0.6,0.19-1.2,0.17-1.1
		c1.61-1.55,2.8-2.56,3.82-3.71c0.71-0.8,1.4-1.26,2.52-1.62c3.53-1.14,7.14,0.39,10.62-0.59c0.09-0.03,0.22,0.07,0.31,0.05
		c1.21-0.26,2.45-0.43,3.6-0.83c1.4-0.48,2.68-1.51,4.08-1.68c2.09-0.25,4.22,0.06,5.82-1.8c0.29-0.34,1.23-0.27,1.84-0.2
		c3.44,0.4,4.87-3.34,7.93-3.7c0.12-0.01,0.23-0.34,0.3-0.53c1.47-4.38,6.02-5.38,9.15-7.9c1.06-0.85,2.93-0.73,4.34-1.04
		c1.1,1.93,0.01,2.9-0.76,4.03c-0.63,0.92-1.54,2.01-1.48,2.97c0.12,1.95,0.67,3.91,1.3,5.79c0.84,2.48,2.66,3.6,5.43,3.41
		c3.6-0.24,7.21-0.24,10.82-0.36c0.53-0.02,1.26,0.06,1.55-0.24c1.55-1.6,3.56-1.32,5.42-1.28c3.33,0.08,6.5-0.49,9.69-1.39
		c2.21-0.63,4.57-0.8,6.87-1.11c0.51-0.07,1.1,0.02,1.57,0.23c2.99,1.34,5.62,0.66,8.05-1.27c1.03-0.82,2.07-0.99,3.23-0.23
		c0.5,0.32,1.08,0.51,2.22,1.03c-0.14-1.56,0.06-2.76-0.38-3.66c-0.86-1.77-2.03-3.41-3.14-5.05c-0.95-1.4-2.21-2.69-1.45-4.77
		c2.85,2.06,5.4,4.04,6.98,6.97c0.24,0.45,0.73,0.77,1.02,1.2c0.83,1.23,2,1.99,3.47,1.94c1.58-0.05,2.2,0.74,2.85,1.99
		c0.6,1.16,1.43,2.54,2.53,3.06c3.23,1.54,6.44,3.16,10.28,0.98c2.59-1.46,5.3,0.82,4.92,3.67c-0.83,6.26-2.21,12.38-4.15,18.4
		c-0.67,2.07-1.53,4.4-1.18,6.41c0.79,4.46,0.54,8.69-0.74,13c-2.48,8.36-5.94,15.98-14.42,20.2c-0.96,0.48-1.87,1.06-1.59,2.47
		c2.17,0.74,4.43,1.34,6.54,2.29c2.06,0.92,3.96,2.19,6.27,3.5c0.19-1.51,0.35-2.52,0.43-3.55c0.23-3.03,0.39-6.08,0.65-9.11
		c0.44-5.13,2.79-7.73,7.84-8.96c1.23-0.3,2.47-0.73,3.55-1.37c1.17-0.7,1.02-1.79-0.2-2.43c-0.37-0.19-0.81-0.26-1.21-0.41
		c-2.41-0.88-2.55-1.22-2.16-3.7c0.34-2.17,0.45-4.38,0.83-6.54c0.46-2.67,1.08-5.32,1.66-7.97c0.49-2.28,2.06-3.2,4.32-3.53
		c6.13-0.89,12.23-1.94,18.35-2.86c2.78-0.42,3.46-0.94,3.83-3.73c0.3-2.18,0.37-4.4,0.67-6.58c0.14-1.01,0.39-2.09,0.93-2.93
		c1.84-2.91,1.88-2.87-0.14-5.69c-0.15-0.21-0.07-0.57-0.14-1.2c1.98-0.06,3.87-0.21,5.75-0.13c1.92,0.08,3.84,0.3,5.72,0.64
		c1.75,0.32,3.79-0.47,5.33,0.98c-0.19,0.41-0.23,0.64-0.36,0.78c-2.36,2.46-2.32,2.55-0.99,5.42c0.47,1.01,0.71,2.19,0.75,3.3
		c0.06,1.78-0.16,3.56-0.24,5.34c-0.17,4.1,0.27,4.91,4.25,6.29c5.14,1.78,10.3,3.52,15.52,5.01c2.55,0.73,4.19,1.97,4.63,4.55
		c0.23,1.33,0.57,2.68,0.56,4.02c-0.03,2.83-0.27,5.66-0.39,8.49c-0.09,2.09-0.4,3.83-2.97,4.56c-1.78,0.5-1.92,2.12-0.47,3.44
		c1.01,0.91,2.17,1.75,3.41,2.31c4.49,2.02,5.71,5.79,5.43,10.11c-0.45,7.12-1.02,14.24-1.89,21.32
		c-1.51,12.3-1.02,24.76-3.23,36.99c-0.28,1.55,0.26,2.67,1.54,3.5c0.89,0.58,1.8,1.13,2.73,1.65c3,1.67,5.71,3.6,7.78,6.42
		c0.8,1.1,2.29,1.78,3.56,2.48c0.91,0.5,1.99,0.71,3.33,1.17c-0.84,1.95,0.68,2.82,1.83,3.87c1.73,1.56,3.36,3.29,5.29,4.57
		c1.91,1.26,4.06,2.6,6.25,2.94c3.98,0.62,8.07,0.67,12.11,0.67c3.43,0,6.86-0.24,10.06,1.28c3.84,1.82,7.93,2.53,12.11,2.69
		c19.32,0.73,38.65,1.39,57.97,2.09c0.99,0.04,1.98,0.27,2.91,0.41c0.06,1.72-0.91,1.97-1.88,2.04c-1.17,0.09-2.35,0.04-3.52,0.01
		c-5.66-0.14-11.32-0.44-16.97-0.4c-10.47,0.08-20.93,0.35-31.4,0.57c-3.07,0.07-5.93-0.48-8.55-2.16c-0.7-0.45-1.54-0.78-2.36-0.93
		c-8.1-1.52-16.27-2.41-24.53-2.1c-0.78,0.03-1.56,0.34-2.88,0.64c0.85,1.42,1.3,2.59,2.11,3.44c1,1.06,2.2,2.03,3.48,2.75
		c4.55,2.55,7.75,6.14,9.67,10.94c1.11,2.79,2.3,3.1,4.95,1.77c0.67-0.33,1.3-0.75,1.99-1.01c2.41-0.91,3.82-0.31,4.94,1.97
		c0.96,1.95,0.78,3.93-0.02,5.81c-0.91,2.17-0.33,3.91,1.2,5.46c1.86,1.88,3.8,3.68,5.69,5.53c1.8,1.76,3.67,3.47,5.36,5.33
		c1.37,1.51,2.63,3.07,4.89,3.24c3.11,0.24,4.67,2.03,5.49,4.87c0.45,1.56,1.14,3.27,2.26,4.39c5.14,5.18,10.36,10.31,15.8,15.18
		c1.91,1.71,2.23,3.22,1.6,5.48c-2.85,10.33-5.6,20.69-8.36,31.05c-3.27,12.28-6.47,24.58-9.78,36.86
		c-2.3,8.52-4.73,17.01-7.09,25.51c-1.85,6.68-3.71,13.36-5.53,20.04c-1.68,6.18-3.3,12.38-4.97,18.57
		c-1.64,6.09-3.32,12.16-4.93,18.26c-0.31,1.16-0.84,2.47,0.58,3.39c2.16-0.79,4.19-2.18,5.44-3.69c0.94-1.12,1.5-2.26,0.79-3.74
		c-0.71-1.47-0.32-2.83,0.51-4.17c0.5-0.79,0.7-1.76,1.21-2.55c0.66-1.01,1.46-1.95,2.25-2.87c0.39-0.45,0.9-0.81,1.47-1.31
		c-0.49-0.71-0.84-1.35-1.31-1.88c-0.88-0.98-0.98-2.03-0.61-3.22c1.4-4.48,2.72-8.99,4.2-13.44c0.26-0.79,1.01-1.56,1.73-2.06
		c2.27-1.59,2.97-3.74,1.5-6.13c-0.96-1.55-1.08-3.11-0.18-4.45c1.79-2.64,1.97-6.25,5.22-8.05c1.09-0.6,1.47-1.98,0.27-2.94
		c-2.26-1.8-1.78-3.82-0.74-5.94c1.17-2.38,2.04-4.8,2.32-7.48c0.12-1.1,1.07-2.16,1.79-3.15c0.41-0.56,1.1-0.93,1.75-1.45
		c-0.76-1.53-2.04-2.74-1.29-4.66c1.26-3.22,2.3-6.52,3.27-9.83c0.5-1.69,0.48-3.53,0.97-5.23c1.18-4.11,2.21-8.32,3.94-12.21
		c0.92-2.08,1.86-4,1.66-6.23c-0.24-2.58,0.2-5.01,1.01-7.43c1.81-5.36,3.98-10.61,4.65-16.3c0.13-1.1,1.07-2.26,1.95-3.07
		c0.95-0.87,1.68-1.77,1.35-2.97c-0.73-2.65-0.13-5.03,0.67-7.61c1.92-6.18,2.4-12.75,5.4-18.65c0.69-1.36,0.78-3.04,1.02-4.59
		c1.03-6.75,2.16-13.46,5.62-19.54c0.31-0.54,0.5-1.16,0.68-1.76c1.58-5.4,2.72-10.96,6.39-15.55c0.51-0.63,0.66-1.53,1.04-2.27
		c1.78-3.43,4.54-6.04,7.53-8.43c0.31-0.25,0.8-0.44,1.19-0.4c1.78,0.17,2.94-0.39,3.91-2.01c0.45-0.75,1.98-1.21,3.03-1.22
		c3.29-0.04,6.59,0.35,9.89,0.3c2.63-0.04,5.12-0.07,6.78,2.2c4.93-2.05,4.86-1.84,10.33-0.77c0.4,0.08,0.99,0.23,1.22,0.04
		c1.84-1.57,3.84-0.74,5.8-0.44c1.2,0.18,2.4,0.34,3.2-0.8c1-1.42,2.46-1.47,3.99-1.51c1.49-0.04,2.98-0.23,4.47-0.27
		c7.68-0.24,15.36-0.44,23.03-0.69c2.65-0.09,5.3-0.26,7.95-0.41c0.74-0.04,1.52-0.34,2.22-0.2c0.75,0.15,1.82,0.51,2.05,1.07
		c0.76,1.8,2.18,1.8,3.71,1.72c2.99-0.15,5.97-0.31,8.96-0.52c1.82-0.12,3.6-0.37,5.06-1.67c0.43-0.38,1.15-0.59,1.74-0.6
		c1.92-0.02,3.83,0.11,5.75,0.15c1.08,0.03,2.1,0.45,2.08,1.53c-0.07,2.83,1.65,4.9,2.82,7.22c1.06,2.11,1.23,2.17,3.68,1.98
		c2.55-0.2,5.15-0.57,7.66-0.27c3.07,0.36,4.71-1.24,6.7-3.52c-2.01-1.61-3.9-3.12-5.8-4.63c2.76-0.78,4.6,0.91,6.64,1.74
		c3.18,1.3,4.08,4.72,5.88,7.42c1.96-0.94,2.49-2.74,3.35-4.23c1.19-2.07,1.87-2.38,4.04-1.46c0.84,0.35,1.66,0.75,2.58,1.17
		c0.32-0.67,0.53-1.03,0.66-1.41c0.98-2.87,1.8-3.13,4.17-1.15c0.71,0.6,1.21,1.44,1.79,2.18c0.37,0.47,0.71,0.95,1.27,1.7
		c0.42-0.72,0.68-1.12,0.9-1.55c0.26-0.52,0.48-1.06,0.73-1.62c0.51,0.2,0.84,0.26,1.08,0.43c3.98,2.87,6.01,2.73,9.42-0.62
		c0.72-0.71,1.53-1.33,2.27-1.98c1.65,1.01,3.06,1.76,4.32,2.7c1.2,0.9,2.24,2.01,3.75,3.39c0.36-2.34,0.62-4.1,0.89-5.88
		c3.09,0.12,2.7,3.76,5.46,4.17c0.17-0.84,0.43-1.61,0.46-2.38c0.05-1.68-0.06-3.36-0.04-5.04c0.03-3.08,1.11-3.83,3.98-2.59
		c3.51,1.51,6.96,3.17,10.45,4.71c0.68,0.3,1.46,0.38,2.72,0.7c-0.58-1.89-1.05-3.15-1.34-4.45c-0.38-1.72,0.15-2.53,1.92-2.35
		c1.7,0.17,3.34,0.91,5.09,1.42c1.29-1.5,1.29-1.5,5.06,0.15c1.48-2.33,3.8-2.53,6.35-2.14c0.84,0.13,1.71,0.04,2.56,0.06
		c2.31,0.07,4.71-0.48,6.79,1.14c0.32,0.25,1.08,0.2,1.52,0.03c1.88-0.76,3.74-0.49,5.67-0.26c1.77,0.21,3.59,0.12,5.38,0.05
		c0.6-0.02,1.38-0.21,1.74-0.61c1.38-1.52,3.22-1.59,5.01-1.67c5.87-0.29,11.74-0.47,17.61-0.72c0.88-0.04,1.76-0.18,3-0.31
		c-1.48-2.08-3.21-2.4-5.06-2.33c-3.63,0.14-7.26,0.43-10.89,0.48c-5.77,0.08-11.54-0.17-17.3,0.07c-6.81,0.28-13.6,1.03-20.41,1.38
		c-6.92,0.36-13.86,0.59-20.79,0.7c-12.18,0.2-24.36,0.23-36.53,0.4c-6.62,0.09-13.24,0.29-19.86,0.54
		c-7.15,0.26-14.29,0.65-21.43,0.96c-3.52,0.16-7.04,0.23-10.56,0.41c-5.66,0.3-11.32,0.57-16.93-0.59
		c-3.24-0.67-6.46-1.44-9.7-2.09c-0.76-0.15-1.57-0.02-2.59-0.02c0.41,1.28,0.71,2.2,1.04,3.23c-2.24,0.88-3.88-0.02-5.08-1.34
		c-2.58-2.83-5.59-4.48-9.53-4.23c-0.1,0.01-0.21-0.03-0.32-0.05c-7.14-1.27-14.29-2.52-21.43-3.83c-9.14-1.67-18.27-3.37-27.4-5.08
		c-4.42-0.83-6.46,0.63-6.92,5.03c-0.05,0.52-0.07,1.05-0.07,1.57c0.01,2.59,0.45,3.19,2.94,3.66c7.24,1.37,14.49,2.68,21.72,4.04
		c0.75,0.14,1.46,0.48,2.2,0.72c-0.72,0.74-1.38,1.01-2.06,1.05c-6.61,0.38-13.22,0.77-19.84,1.04c-2.13,0.09-4.32,0.11-6.38-0.3
		c-1.83-0.36-3.59-1.24-5.26-2.13c-1.12-0.6-1.35-1.87-0.16-2.56c2.95-1.7,3.63-4.28,3.96-7.39c0.45-4.19,2.1-7.62,7.21-8.29
		c2.94-0.39,3.84-1.9,3.7-4.92c-0.14-3.04,0.73-5.82,2.05-8.48c0.97-1.95,2.03-2.3,4.21-1.75c1.75,0.45,3.49,0.99,5.28,1.28
		c5.38,0.85,10.77,1.58,16.16,2.38c1.72,0.26,3.4,0.41,4.87-0.82c1.1-0.92,2.07-0.41,3.21,0.13c2.09,0.99,4.25,2.08,6.5,2.46
		c10.21,1.74,20.46,3.21,30.69,4.85c7.68,1.23,15.54,1.51,23,3.99c1.57,0.52,3.24,0.49,4.49-0.8c1.77-1.82,4.06-2.67,6.35-3.55
		c2.42-0.94,4.54-2.23,6.24-4.24c1.69-2.01,3.54-3.91,5.39-5.79c0.74-0.75,1.86-1.26,1.37-2.54c-0.49-1.26-1.66-1.59-2.88-1.58
		c-2.35,0.01-4.7,0.14-7.04,0.15c-6.08,0.03-12.18,0.39-18.22-0.05c-7.23-0.54-14.4-1.83-21.61-2.7
		c-5.61-0.68-11.26-1.12-16.86-1.86c-6.35-0.84-12.67-1.88-18.99-2.89c-1.76-0.28-3.2-0.16-4,1.65c-0.17,0.39-0.37,0.77-0.67,1.4
		c-1.59-1.14-2.77-1.83-3.76-2.73c-1.82-1.67-3.96-2.4-6.4-2.51c-0.85-0.04-1.69-0.21-2.54-0.32c-8.88-1.18-17.77-2.35-26.65-3.57
		c-1.79-0.25-3.86-0.23-5.25-1.15c-2.97-1.98-6.17-2.73-9.6-3.17c-1.25-0.16-2.51-0.59-3.64-1.14c-1.33-0.64-2.12-1.8-1.94-3.34
		c0.17-1.47,1.3-2.12,2.61-2.43c1.14-0.27,2.31-0.4,3.47-0.57c2.85-0.41,5.71-0.78,8.56-1.22c0.73-0.11,1.5-0.27,2.14-0.61
		c1.99-1.03,2.06-3.42,0.12-4.54c-0.81-0.47-1.78-0.71-2.7-0.94c-3.21-0.79-6.46-1.46-9.65-2.29c-1.81-0.47-3.71-0.99-4.43-3.05
		c2.72-1.96,6.25-2.27,8.28-0.55c2.57,2.18,5.57,2.63,8.71,2.33c4.83-0.47,9.28-2.03,9.05-9.48c-0.01-0.21-0.01-0.42,0-0.63
		c0.14-2.26,0.51-2.77,2.88-2.87c3.31-0.14,6.62-0.07,9.93-0.09c1.58-0.01,2.8,0.45,3.83,1.8c1.2,1.58,2.33,1.68,3.75,0.26
		c2.16-2.16,4.87-2.52,7.41-1.85c3.48,0.92,6.9,1.23,10.43,1c1.1-0.07,2.19,0.09,2.7,1.26c0.8,1.82,2.45,2.2,4.17,2.48
		c5.89,0.99,11.78,1.99,17.69,2.92c1.89,0.3,3.85,0.24,5.73,0.6c6.17,1.19,12.3,2.63,18.49,3.71c2.49,0.43,5.1,0.26,7.65,0.23
		c2.02-0.02,4.04-0.3,6.07-0.36c7.04-0.22,14.08-0.42,21.13-0.57c4.17-0.09,8.33-0.15,12.5-0.12c1.38,0.01,2.76,0.25,4.12,0.52
		c1.42,0.28,2.37,1.24,2.26,2.65c-0.23,2.8-0.45,5.64-1.13,8.35c-0.55,2.17-2.32,3.39-4.75,3.59c-7.23,0.59-14.45,1.25-21.68,1.91
		c-0.95,0.09-1.93,0.16-2.79,0.51c-0.48,0.19-1.02,0.92-1.02,1.41c0,0.45,0.59,1.13,1.08,1.31c1.29,0.47,2.65,0.96,4,1.02
		c3.62,0.17,7.25,0.14,10.88,0.16c4.17,0.03,8.34-0.07,12.5,0.08c8.64,0.31,17.27,0.86,25.91,1.1c6.62,0.18,13.25-0.01,19.88,0.07
		c4.8,0.05,9.61,0.12,14.4,0.46c4.67,0.33,6.57-0.93,7.1-5.51c1.54-13.24,3.08-26.48,4.53-39.73c1.58-14.5,3.04-29.01,4.59-43.52
		c1.89-17.74,3.88-35.47,5.69-53.22c1.28-12.53,2.2-25.09,3.57-37.61c0.83-7.54-1.66-9.04-8.56-8.53
		c-4.36,0.33-8.74,0.59-13.11,0.53c-6.83-0.09-13.66-0.4-20.47-0.79c-2.32-0.13-4.68-0.59-6.9-1.26c-2.93-0.88-4.61-2.98-4.62-6.1
		c0-2.2,0.09-4.41,0.23-6.61c0.29-4.71,0.76-9.41,0.95-14.13c0.5-12.68,0.86-25.37,1.32-38.05c0.39-10.69,0.81-21.38,1.27-32.07
		c0.61-13.94,1.29-27.87,1.9-41.81c0.52-11.84,0.96-23.69,1.46-35.54c0.23-5.45,0.51-10.9,0.77-16.35
		c0.56-12.05,1.08-24.1,1.7-36.15c0.39-7.75,0.86-15.5,1.42-23.24c0.25-3.54,1.7-5.15,5.23-5.79c1.85-0.33,3.83-0.26,5.72-0.07
		c1.9,0.2,3.81,0.62,5.63,1.21c5.28,1.71,10.5,1.48,15.78,0.04c3.81-1.04,7.66-1.93,11.49-2.9c7.97-2.01,16.04-3.68,23.86-6.16
		c4.16-1.32,8.23-2.38,12.56-2.95c9.42-1.24,18.75-3.14,28.18-4.23c10.81-1.26,21.67-2.57,32.53-2.74
		c18.68-0.28,37.38,0.32,56.07,0.56c0.75,0.01,1.5,0.03,2.24,0.15c2.81,0.46,5.54,0.19,8.21-0.72c1.29-0.44,2.43-0.43,3.67,0.25
		c1.87,1.01,3.89,1.15,5.85,0.2c1.33-0.64,2.36-0.32,3.57,0.4c1.24,0.74,2.67,1.33,4.08,1.58c3.68,0.65,7.38,1.2,11.1,1.54
		c2.21,0.2,4.56,0.33,6.67-0.21c4.67-1.19,9.08-0.91,13.45,1c1.56,0.68,3.17,1.26,4.77,1.86c2.38,0.89,3.99,2.55,4.5,4.95
		c0.47,2.24,0.85,4.58,0.73,6.84c-0.28,5.44-0.88,10.87-1.33,16.3c-0.6,7.21-1.26,14.41-1.75,21.63
		c-0.75,11.09-1.39,22.18-2.04,33.28c-0.66,11.2-1.26,22.4-1.9,33.61c-0.21,3.77-0.43,7.54-0.67,11.31
		c-0.81,12.66-1.69,25.31-2.44,37.97c-0.55,9.21-0.95,18.42-1.38,27.63c-0.42,9.11-0.79,18.22-1.2,27.34
		c-0.08,1.78-0.23,3.56-0.42,5.33c-0.37,3.45,0.79,4.84,4.3,5.18c7.65,0.75,15.29,1.54,22.93,2.34c4.14,0.43,8.26,1.09,12.41,1.37
		c8.63,0.57,17.27,1,25.91,1.42c12.16,0.59,24.33,1.16,36.49,1.65c12.49,0.51,24.98,0.91,37.47,1.39c0.8,0.03,1.6,0.32,2.68,0.55
		c0,1.66,0,3.11,0,4.57c-0.06,16.8-0.18,33.59-0.18,50.39c0.01,34.54,0.09,69.07,0.11,103.61c0.02,31.07,0.01,62.15,0,93.22
		c0,1.41-0.18,2.82-0.26,4.17c-5.1,0.55-9.73-0.07-14.38-0.7c-4.86-0.65-9.87-0.57-14.6-1.67c-7.95-1.85-16.04-2.41-24.07-3.47
		c-8.89-1.18-17.82-2.05-26.73-3.04c-6.68-0.74-13.37-1.45-20.05-2.17c-6.37-0.69-12.74-1.35-19.1-2.08
		c-5.83-0.67-11.65-1.44-17.49-2.1c-10.61-1.2-21.21-2.37-31.83-3.51c-3.5-0.37-7.04-0.98-10.52-0.77c-3.14,0.19-6.16-0.03-9.23-0.4
		c-3.5-0.42-7.01-0.75-10.5-1.17c-3.92-0.47-7.94-0.59-11.72-1.58c-8.42-2.22-17.02-2.73-25.61-3.46c-3.49-0.3-6.85-1.02-10.39-1.76
		c0.23-1.08,0.51-1.78,0.5-2.48c-0.03-1.45,0.04-2.97-0.38-4.32c-0.8-2.57-3.6-3.77-5.89-2.77c-2.4,1.04-3.36,3.59-2.29,6.06
		c0.32,0.73,0.64,1.46,0.96,2.19c-0.51,0.3-0.77,0.48-1.05,0.62c-2.51,1.23-3.17,2.11-2.94,3.92c0.29,2.28,1.43,3.29,4.05,3.72
		c2,0.32,3.97,0.84,5.98,1.05c4.53,0.48,9.11,0.14,13.62,1.33c3.14,0.83,6.47,0.94,9.7,1.41c0.28,0.04,0.52,0.32,0.76,0.47
		c-0.43,1.48-1.24,1.86-2.48,1.5c-0.81-0.24-1.61-0.61-2.44-0.68c-1.43-0.12-2.78,0.89-2.81,2.03c-0.04,1.42,0.99,2.26,2.2,2.23
		c2.41-0.07,4.58,0.33,6.64,1.59c0.48,0.29,1.25,0.09,1.88,0.17c1.45,0.17,2.94,0.21,4.34,0.59c1.96,0.53,3.8,0.56,5.56-0.49
		c1.54-0.92,1.7-1.72,0.56-3.03c-1.53-1.75-3.31-3.02-5.87-2.28c-0.97,0.28-1.85,0.37-2.29-0.82c2.29-1.24,2.39-1.24,4.58-0.99
		c2.97,0.34,5.94,0.63,8.91,0.96c10.29,1.15,20.58,2.28,30.87,3.47c11.45,1.33,22.9,2.71,34.35,4.06
		c9.86,1.16,19.73,2.23,29.57,3.49c5.59,0.72,11.12,1.83,16.71,2.58c3.59,0.48,7.31,0.25,10.81,1.03
		c5.46,1.22,10.96,1.64,16.51,1.81c0.85,0.03,1.71,0.09,2.55,0.2c4.22,0.55,8.44,1.13,12.66,1.67c4.11,0.53,8.23,1.01,12.35,1.55
		c6.76,0.89,13.49,2.09,20.28,2.63c5.33,0.42,10.62,0.9,15.84,2.04c2.13,0.46,2.15,0.42,1.41,3.02c-3.26-2.37-7.12-1.9-10.79-2.25
		c-1.74-0.17-3.43,1.18-3.34,2.3c0.13,1.61,1.54,1.83,2.77,2.16c3.8,1.02,7.62,1.88,11.91,1.07c0.1,2.35,0.26,4.42,0.25,6.5
		c-0.08,26.98-0.2,53.95-0.29,80.93c-0.03,7.85-0.07,15.7-0.02,23.55c0.08,12.91,0.22,25.82,0.31,38.73
		c0.01,0.98-0.23,1.95-0.38,3.1c-1.13-0.26-1.88-0.33-2.55-0.6c-9.68-3.94-19.52-7.34-29.56-10.33c-13.4-3.99-26.85-7.73-40.5-10.78
		c-5.62-1.26-11.26-2.44-16.91-3.58c-2.97-0.6-5.62,0.15-8.2,1.78c-2.95,1.87-6.05,3.53-9.22,5c-4.14,1.93-8.44,3.52-12.63,5.37
		c-5.54,2.45-11.04,4.98-16.54,7.53c-0.86,0.4-1.6,1.06-3.06,2.05c1.67,0.55,2.51,0.97,3.39,1.1c13.01,1.8,26.03,3.53,39.04,5.33
		c6.77,0.94,13.55,1.85,20.27,3.03c4.57,0.81,8.82,2.59,12.15,5.95c2.84,2.87,3.31,5.59,1.49,9.19c-1.18,2.35-2.63,4.57-3.88,6.88
		c-0.53,0.97-0.87,2.04-1.37,3.23c1.43,0.68,2.62,1.14,3.7,1.77c2.4,1.4,2.67,2.6,1.12,4.85c-2.76,3.99-5.57,7.95-8.33,11.94
		c-1.08,1.56-2.13,3.15-3.06,4.79c-0.3,0.52-0.19,1.27-0.33,2.43c1.36-0.56,2.27-0.82,3.05-1.29c7.39-4.39,14.78-8.78,22.12-13.25
		c5.62-3.43,11.22-6.91,16.71-10.54c4.24-2.8,8.75-4.03,13.87-3.95c6.25,0.1,12.27,1.5,18.36,2.51c0.29,0.05,0.56,0.27,1.19,0.59
		c0.07,38.11,0.09,76.36-0.29,115.09c-2.5-0.38-4.59-0.57-6.62-1.03c-3.11-0.71-6.14-1.72-9.26-2.39c-1.89-0.41-3.71-0.73-5.32-1.95
		c-0.62-0.47-1.75-0.51-2.61-0.43c-0.93,0.09-1.9,0.42-2.73,0.86c-1.8,0.97-3.47,0.75-5.18-0.17c-1.22-0.65-2.44-1.32-3.71-1.87
		c-0.85-0.37-1.78-0.63-2.7-0.77c-4.98-0.74-10.15-0.7-14.57-3.67c-0.68-0.46-1.58-0.62-2.41-0.83c-3.05-0.78-6.11-0.54-9.2-0.19
		c-1.75,0.2-3.2,0.56-4.61,1.77c-3.73,3.2-8.08,2.11-10.1-2.34c-0.25-0.54-0.6-1.04-0.68-1.16c-1.75-0.14-3.08-0.28-4.4-0.35
		c-0.52-0.03-1.04,0.11-1.56,0.16c-1.35,0.14-2.73,0.54-4.04,0.37c-4.42-0.58-8.74-1.54-12.63-3.86c-0.61-0.36-1.4-0.62-2.1-0.6
		c-2.13,0.07-4.26,0.25-6.38,0.48c-2.12,0.23-2.66,0.82-2.18,2.85c0.51,2.17-0.43,3.4-2.2,4.35c-0.56,0.3-1.16,0.55-1.68,0.92
		c-1.65,1.16-1.71,2.57-0.23,3.91c3.16,2.86,5.55,2.77,8.35-0.33c0.13-0.14,0.13-0.39,0.18-0.55c-0.3-0.76-0.59-1.5-0.88-2.24
		c2.59-1.67,3.54,3.19,6,1.15c0.66-3.05,1.01-3.29,4.25-3.13c3.8,0.2,6.97,1.52,9.56,4.39c1.85,2.05,2,1.91,0,3.88
		c-1.57,1.54-1.67,2.42-0.33,4.06c1.39,1.7,3.02,2.73,5.43,2.82c3.06,0.12,6.45,0.03,9.09,1.28c4.79,2.26,9.64,2.37,14.61,1.98
		c2.62-0.21,4.85,0.18,6.87,1.83c0.73,0.6,1.58,1.07,2.32,1.66c3.11,2.49,6.33,3.35,9.95,0.96c2.3-1.53,4.83-0.36,7.2-0.18
		c1.07,0.08,2.17,1.5,3.02,2.5c1.41,1.66,2.98,2.54,5.27,2.32c1.09-0.11,2.23,0.38,3.36,0.56c2.7,0.43,5.39,1.02,8.11,1.21
		c4.75,0.33,9.52,0.41,14.29,0.59c0.21,1.03,0.43,1.63,0.44,2.23c0.12,3.67,0.27,7.34,0.27,11.01c0.02,16.8,0,33.59,0,50.39
		C1291.42,831.48,1291.44,847.96,1291.46,864.44z M1007.77,293.15c-1.37,2.59-3.38,3.33-5.64,3.7c-1.89,0.31-3.79,0.63-5.66,1.02
		c-4.26,0.88-8.33,2.69-12.85,2.29c-0.77-0.07-1.58,0.53-2.39,0.76c-1.3,0.37-2.61,0.89-3.94,0.99c-2.18,0.16-4.46-0.62-6.44,1
		c-0.33,0.27-1.03,0.06-1.56,0.11c-3.71,0.34-7.48,0.38-11.11,1.1c-5.41,1.08-10.59,3.22-16.28,2.93c-1.73-0.09-3.16,0.95-3.53,2.68
		c-0.83,3.9-1.78,7.81-2.14,11.76c-0.48,5.42-0.44,10.89-0.66,16.33c-0.05,1.36-0.23,2.71-0.38,4.06
		c-0.66,5.83-1.38,11.66-1.98,17.5c-0.25,2.4,0.76,3.47,3.28,3.63c1.81,0.12,3.65-0.06,5.44,0.15c1.56,0.18,3.1,0.66,4.6,1.14
		c1.81,0.57,3.52,1.59,5.35,1.89c7.05,1.14,14.14,2.08,21.22,3.07c0.52,0.07,1.11,0.15,1.58-0.02c0.55-0.2,1.27-0.58,1.41-1.03
		c0.13-0.43-0.24-1.32-0.65-1.55c-1.46-0.83-3-1.58-4.58-2.16c-2.43-0.9-2.51-0.9-2.24-3.34c0.32-2.92-0.67-4.33-3.53-4.97
		c-1.25-0.28-2.53-0.41-3.77-0.72c-0.59-0.15-1.44-0.42-1.61-0.86c-0.82-2.02-2.44-3.35-3.8-4.94c-1.23-1.44-1.81-3.41-2.9-5.58
		c3.15-0.49,5.78-1.33,6.69-4.6c3.85,0.3,7.56,0.6,11.27,0.87c4.04,0.29,8.07,0.62,12.12,0.77c2.32,0.08,3.45-0.89,3.7-2.65
		c0.27-1.96-0.92-3.62-3.11-4.11c-1.23-0.27-2.52-0.3-3.84-0.44c0.22-0.15,0.37-0.29,0.54-0.37c2.45-1.04,3.34-2.15,3.24-4.09
		c-0.1-1.88-1.22-2.98-3.86-3.53c-1.66-0.35-3.39-0.4-5.05-0.76c-1.22-0.26-2.53-0.6-3.49-1.31c-0.72-0.53-1.45-1.85-1.25-2.57
		c0.19-0.69,1.52-1.39,2.43-1.51c1.89-0.25,3.84-0.13,5.76-0.14c1.73-0.01,3.4-0.21,4.65-1.43c0-0.35,0.06-0.57-0.01-0.75
		c-1.11-2.81-0.82-3.34,2.12-3.45c2.24-0.08,4.49-0.04,6.73,0.02c2.75,0.08,2.92,0.25,3.57,2.97c0.91,3.86,4.17,5.79,7.98,4.62
		c3.36-1.03,6.7-2.13,10.02-3.29c4.02-1.4,8-2.9,12-4.35c2.3-0.83,4.69-1.48,6.91-2.49c4.01-1.83,7.47-4.46,10.31-7.81
		c2.67-3.16,1.81-7.36-2-8.43c-3.03-0.85-6.31-1.32-9.44-1.18c-3.87,0.18-7.9-0.08-11.59,1.62c-0.37,0.17-0.85,0.24-1.26,0.19
		c-1.89-0.24-3.95,0.28-6.19-1.32c1.5-0.6,2.52-1.09,3.58-1.42c5.59-1.72,11.22-3.32,16.78-5.12c1.69-0.55,3.33-1.42,4.77-2.45
		c0.72-0.52,1.42-1.85,1.22-2.59c-0.19-0.73-1.45-1.5-2.35-1.66c-2.08-0.37-4.24-0.25-6.34-0.57c-1.97-0.3-3.92-0.81-5.83-1.4
		c-3.02-0.94-5.64-2.92-9.01-2.98c-2.02-0.04-2.71-1-2.91-3.06c-0.24-2.4-0.45-4.8-0.64-7.2c-0.32-4.02-1.88-5.22-6.03-5.05
		c-2.42,0.1-4.88-0.08-7.29-0.4c-0.8-0.11-1.71-0.92-2.16-1.65c-1.03-1.68-0.25-3.22,0.86-4.62c0.78-0.99,1.72-1.9,2.3-2.99
		c0.87-1.66,0.46-3.19-1.32-3.52c-3.39-0.62-6.2-2.46-9.32-3.49c-4.1-1.34-8.56-1.61-12.88-2.31c-2.95-0.48-5.96-0.79-8.16-3.16
		c-0.88-0.94-1.97-1.22-3.21-0.78c-1.24,0.44-2-0.07-3.09-0.8c-2.2-1.5-4.21-3.57-7.28-3.55c-1.21,0.01-1.97-0.73-1.7-2.1
		c0.11-0.56,0.09-1.14,0.13-1.74c-2.68,0.11-3.66,0.62-4.16,2.32c-0.55,1.91-1.1,3.84-1.39,5.8c-0.81,5.49-1.48,10.99-2.22,16.49
		c-0.36,2.7-0.76,5.4-1.14,8.1c-0.52,3.74-1.16,7.47-1.54,11.22c-0.34,3.33,0.87,4.12,4.05,3.11c1.59-0.5,3.37-1.24,4.9-0.98
		c2.53,0.43,4.82,0.39,7.17-0.61c1.54-0.66,3.12-0.71,4.55,0.38c2.95,2.23,5.87,4.51,8.88,6.67c0.82,0.59,1.86,1.05,2.86,1.22
		c5.13,0.87,10.43,0.96,15.21,3.38c0.46,0.23,1.04,0.22,1.55,0.36c1.62,0.46,3.26,0.88,4.85,1.42c2.41,0.82,4.79,1.75,7.19,2.61
		C1004.43,292.02,1006,292.54,1007.77,293.15z M1143.56,551.25c-2.03-0.42-3.32-0.77-4.64-0.96c-6.24-0.86-12.47-1.73-18.72-2.51
		c-12.92-1.61-25.83-3.27-38.77-4.7c-9.22-1.02-18.48-1.74-27.74-2.51c-9.89-0.83-19.77-1.74-29.68-2.28
		c-12.58-0.69-25.17-1.13-37.76-1.48c-6.08-0.17-11.51-2.02-16.66-4.96c-2.76-1.58-3.23-3.51-1.73-6.38
		c0.44-0.84,0.95-1.65,1.27-2.53c0.31-0.85,0.19-1.75-0.84-2.08c-3.24-1.03-6.51-2.01-9.77-2.99c-1.25-0.38-2.08,0.11-2.55,1.25
		c-1.03,2.53-2.21,5.02-3,7.62c-1.37,4.5-2.46,9.08-3.71,13.62c-0.42,1.51-0.8,3.08-1.53,4.45c-1.33,2.49-2.91,4.85-4.39,7.27
		c-0.91,1.49-0.58,2.33,1.16,2.67c1.88,0.37,3.79,0.62,5.69,0.89c19.13,2.66,38.27,5.31,57.4,7.98c14.8,2.06,29.6,4.11,44.4,6.22
		c2.21,0.32,3.81,0.29,4.75-2.28c0.78-2.12,2.73-2.5,4.79-1.5c6.47,3.17,13.48,4.52,20.5,3.85c11.78-1.12,23.57-2.49,35.1-5.37
		c8.71-2.18,16.34-6.62,24.02-10.96C1141.9,553.18,1142.42,552.39,1143.56,551.25z M1097.94,676.32c1.18-1.34,2.29-1.83,3.85-1.27
		c0.48,0.17,1.19-0.25,1.8-0.4c1.63-0.4,3.27-0.81,4.9-1.21c0.72-0.18,1.59-0.14,2.13-0.55c3.14-2.36,6.36-2.54,9.87-0.85
		c1.21,0.58,2.67,0.65,3.94,1.13c1.36,0.52,2.61,1.33,3.97,1.87c2.69,1.08,3.67,2.83,2.88,5.49c2.32,0.34,4.6,0.68,6.88,1.01
		c0.13-0.22,0.26-0.43,0.39-0.65c-1.13-1.38-2.26-2.76-3.34-4.09c0.78-0.99,2.66-0.51,2.46-2.47c-0.82-0.24-1.69-0.49-2.98-0.87
		c1.77-0.72,3.03-1.22,4.5-1.82c0.81,1.19,1.55,2.29,1.92,2.83c3.22,0.53,5.92,0.86,8.55,1.5c0.7,0.17,1.53,1.22,1.67,1.97
		c0.66,3.62,1.74,4.48,5.66,4.27c0.81-0.04,1.86,0.04,2.42,0.51c0.73,0.61,1.34,1.63,1.47,2.54c0.06,0.46-0.97,1.21-1.64,1.61
		c-0.87,0.51-1.87,0.79-2.76,1.15c0.74,2.94,2.89,4.9,5.65,5.71c1.17,0.34,2.22,1.06,3.32,1.6c0.94,0.47,1.84,1.08,2.83,1.37
		c2.18,0.62,3.62,1.99,4.87,3.99c-0.85,0.76-1.88,1.3-2.32,2.14c-0.67,1.29,1.52,6.47,2.9,6.92c2.02,0.65,4.11,1.11,6.21,1.51
		c0.97,0.18,1.96-0.05,1.88-1.61c-2.49-0.88-5-1.77-7.94-2.81c0.96-0.57,1.58-1.17,2.31-1.35c1.54-0.38,3.13-0.59,4.72-0.79
		c2.98-0.36,3.98-1.95,3-4.61c-0.31-0.83-0.57-1.95-0.25-2.69c1.18-2.72,0.32-5.08-0.76-7.56c-0.47-1.09-0.52-2.39-0.61-3.6
		c-0.24-3.02-0.29-6.06-0.64-9.07c-0.09-0.84-0.98-1.57-1.4-2.39c-0.47-0.91-1.15-1.86-1.17-2.8c-0.06-3.41,0.76-6.48,4.24-8.18
		c1.05-0.51,2.1-1.06,3.05-1.72c0.61-0.42,1.04-1.09,2-2.13c-2.03-0.3-3.36-0.54-4.7-0.68c-2.55-0.26-5.12-0.34-7.65-0.72
		c-8.98-1.31-17.95-2.73-26.93-4.09c-18.69-2.82-37.38-5.66-56.08-8.44c-12.67-1.88-25.36-3.71-38.05-5.48
		c-1.3-0.18-2.98-0.23-3.99,0.41c-3.13,1.98-6.12,4.21-8.97,6.55c-1.79,1.47-1.19,3.38,1.06,3.97c0.92,0.24,2.01,0.1,2.82,0.51
		c4.89,2.47,10.27,2.61,15.53,3.4c3.35,0.5,6.61,1.56,9.92,2.31c4.99,1.14,9.98,2.23,14.98,3.33c1.41,0.31,2.59,0.86,3.14,2.14
		c-0.99,1.66-1.88,3.18-2.81,4.68c-1.07,1.74-3.26,1.88-4.83,0.52c-0.91-0.79-2.05-1.39-3.19-1.84c-1.11-0.44-2.35-0.58-3,0.86
		c-0.61,1.36-0.04,3.73,1.25,4.18c1.78,0.62,3.68,1.22,5.53,1.23c1.65,0.01,3.15,0.05,4.62,0.81c1.36,0.71,2.46,0.32,3.3-0.92
		c0.71-1.05,1.42-2.1,2.21-3.08c0.41-0.52,1-0.9,1.63-1.46c0.96,1.59,1.54,3.11,2.6,4.17
		C1097.85,673.46,1098.26,674.51,1097.94,676.32z M824.18,570.44c0.72-1.37,1.57-2.8,2.24-4.31c0.72-1.63,1.36-3.3,1.84-5
		c0.17-0.59-0.06-1.71-0.47-1.93c-0.61-0.33-1.63-0.28-2.32,0c-0.86,0.34-1.6,1.02-2.31,1.65c-3.48,3.06-6.06,6.77-7.76,11.02
		c-0.75,1.88-1.58,2.95-3.89,2.81c-1.76-0.11-3.59,0.42-5.35,0.8c-0.55,0.12-1.25,0.56-1.46,1.03c-1.14,2.54-3,3.28-5.7,2.73
		c-1.4-0.29-2.72-0.06-3.36,1.62c-1.93,5.09-3.98,10.13-5.88,15.23c-0.35,0.93-0.6,2.24-0.2,3.03c0.95,1.88,0.55,3.68,0.26,5.52
		c-0.79,4.98-1.23,9.99-0.6,15.01c0.25,1.96,0.64,3.95,1.36,5.79c1,2.56,2.85,3.19,5.44,2.25c0.49-0.18,0.94-0.49,1.42-0.72
		c2.3-1.14,4.49-2,7.29-1.24c2.31,0.63,4.86,0.4,6.83-1.6c4.73-4.78,8.48-10.17,11.16-16.3c0.72-1.65,0.93-3.17,0.08-4.82
		c-0.81-1.57-0.91-3.19-0.2-4.86c0.24-0.56,0.4-1.22,0.37-1.82c-0.27-5.45,2.06-9.98,5.28-14.14c2.55-3.29,2.62-5.59-0.21-8.58
		C827.06,572.56,825.8,571.76,824.18,570.44z M316.52,375.92c1.2-0.56,2.15-0.83,2.85-1.4c0.47-0.38,0.97-1.38,0.77-1.77
		c-1.06-2.06-0.15-5.03-3-6.28c-0.36-0.16-0.63-0.86-0.68-1.34c-0.44-4.03-2.73-7.25-4.91-10.45c-2.54-3.72-3.9-7.83-4.92-12.12
		c-0.49-2.03-1.13-4.03-1.66-6.05c-1.01-3.84-2-7.68-3.01-11.52c-0.17-0.63-0.44-1.24-0.86-2.39c-0.39,1.75-0.64,2.88-0.89,4.02
		c-0.99-4.09-0.28-8.23-1.46-12.31c-0.69,0.46-1.23,0.95-1.34,1.53c-0.42,2.16-0.74,4.34-1.03,6.52c-0.99,7.47-1.71,14.98-3.66,22.3
		c-0.05,0.18,0.07,0.4,0.12,0.61c0.67,0.4,1.35,0.8,2,1.18c-0.95,3.24-2.5,5.75-5.43,7.32c-0.6,0.32-1.04,0.99-1.49,1.55
		c-0.98,1.24-1.74,2.69-2.9,3.73c-4.09,3.67-8.3,7.21-12.49,10.77c-0.92,0.78-2.18,1.24-2.66,2.61c1.17,0.76,2.25,1.41,3.27,2.14
		c2.06,1.46,3.92,3.32,6.17,4.36c2.56,1.18,4.26,3.02,5.94,5.05c0.66,0.8,1.51,1.49,2.34,2.13c3.52,2.69,7.1,5.31,10.59,8.04
		c1.14,0.89,1.96,0.75,3.13,0.03c1.01-0.63,2.28-0.96,3.48-1.17c2-0.35,2.46-0.97,1.93-3.02c-0.25-0.95-0.48-1.91-0.8-3.22
		c3.98,0.41,5.75-1.95,7.62-4.28c0.6-0.75,1.53-1.37,2.45-1.74c1.18-0.49,2.46-0.73,2.93-2.33
		C318.25,377.73,317.55,377,316.52,375.92z M1036.01,175.17c1.39-1.38,2.75-2.31,3.51-3.59c0.93-1.56,2.14-2.06,3.71-1.7
		c2.92,0.67,5.49,0.33,7.24-1.8c6.04,2.43,11.82,3.12,17.6,0.98c5.95,1.69,11.74,3.38,17.64-0.21c0.31,0.18,0.73,0.32,1.02,0.6
		c1.96,1.82,4.45,1.94,6.89,1.98c1.78,0.03,3.14-1.23,3.4-2.77c0.26-1.56-0.61-3.06-2.29-3.73c-0.68-0.27-1.44-0.37-2.18-0.45
		c-2.51-0.28-4.86,0.2-6.81,1.69c-3.27-1.78-10.03-3.55-13.37-2.57c-2.98,0.87-5.47,0.71-8.39-0.08c-2.82-0.76-5.93-0.53-8.92-0.56
		c-1-0.01-2.11,0.35-2.97,0.86c-1.17,0.69-2.03,0.52-3.24,0c-3.78-1.62-7.76-2.3-11.81-1.06c-1.34,0.41-2.41,0.38-3.65-0.21
		c-1.7-0.81-3.59-0.92-5.28-0.1c-1.44,0.7-2.52,0.44-3.89-0.18c-2.6-1.17-5.38-1.36-8.07-0.25c-1.1,0.46-1.96,0.55-2.97-0.15
		c-0.68-0.48-1.49-0.83-2.3-1.06c-1.77-0.51-2.48-1.39-2.45-3.39c0.07-4.09-3.61-7.35-7.2-7.35c-7.47-0.01-14.93-0.42-22.4-0.56
		c-1.57-0.03-3.15,0.41-4.73,0.57c-1.78,0.19-3.58,0.49-5.35,0.42c-5.32-0.2-10.63-0.63-15.94-0.83c-2.6-0.1-3.5,1.45-2.1,3.68
		c0.75,1.2,1.97,2.13,3.07,3.09c0.83,0.72,1.79,1.3,2.64,1.91c-0.55,1.44-1.08,2.48-1.35,3.59c-0.68,2.88,0.95,5.03,3.95,5.2
		c0.93,0.05,1.87-0.31,2.82-0.38c1.12-0.09,2.25-0.16,3.36-0.07c1.37,0.1,2.73,0.48,4.1,0.54c4.06,0.18,8.11-1.42,12.21,0.02
		c0.71,0.25,1.67-0.24,2.51-0.28c0.94-0.04,1.99-0.21,2.8,0.14c2.32,1,4.55,0.79,6.88,0.13c0.88-0.25,1.99-0.53,2.77-0.22
		c3.27,1.28,6.66,1.38,10.08,1.38c2.44,0,4.93,0.3,7.12-1.24c0.36-0.25,1.18-0.32,1.49-0.09c2.24,1.63,4.83,1.41,7.37,1.64
		c0.67,0.06,1.68,0.78,1.83,1.37c0.55,2.09,0.91,4.25,1.11,6.41c0.17,1.82,0.66,2.98,2.47,3.04c2.19,0.08,4.43-0.32,6.59-0.77
		c0.6-0.13,1.15-1.15,1.41-1.87C1036.2,176.24,1036.01,175.46,1036.01,175.17z M1021.27,267.35c1.71-2.15,2.12-2.53,3.52-2.03
		c3.03,1.09,6.12,0.71,9.2,0.75c1.92,0.03,3.85,0.13,5.77,0.08c0.43-0.01,1.22-0.51,1.2-0.73c-0.05-0.53-0.42-1.07-0.78-1.52
		c-0.16-0.2-0.58-0.24-0.89-0.28c-4.43-0.5-8.87-1.02-13.31-1.46c-1.23-0.12-2.71-0.2-2.68-1.6c0.04-1.72,1.62-1.13,2.75-1.1
		c3.63,0.12,7.25,0.22,10.88,0.31c0.42,0.01,0.93,0.05,1.26-0.15c0.58-0.35,1.4-0.83,1.47-1.34c0.06-0.45-0.69-1.12-1.23-1.49
		c-0.4-0.27-1.02-0.24-1.55-0.3c-3.61-0.39-7.22-0.75-10.82-1.14c-1.11-0.12-2.42,0.11-2.81-1.52c0.71-1.15,1.79-1.33,3.03-1.23
		c3.4,0.27,6.81,0.53,10.21,0.72c1.05,0.06,2.15,0.01,3.17-0.22c0.52-0.12,1.28-0.78,1.27-1.17c-0.02-0.6-0.48-1.49-1-1.71
		c-0.94-0.41-2.05-0.47-3.1-0.59c-3.9-0.46-7.8-0.88-11.7-1.36c-0.36-0.04-0.67-0.42-0.98-0.63c0.28-1.52,1.42-1.71,2.46-1.65
		c3.81,0.25,7.61,0.63,11.41,0.93c1.27,0.1,2.55,0.21,3.82,0.15c1.04-0.04,1.86-0.6,1.89-1.75c0.04-1.16-0.75-1.75-1.79-1.84
		c-1.9-0.17-3.82-0.17-5.72-0.32c-3.27-0.25-6.55-0.51-9.8-0.89c-0.46-0.05-1.13-0.79-1.17-1.26c-0.04-0.45,0.53-1.25,0.98-1.37
		c0.87-0.24,1.84-0.16,2.76-0.11c1.79,0.09,3.69,0.67,5.34,0.27c1.89-0.46,3.55-0.25,5.33,0.09c1.14,0.22,2.36,0.37,3.48,0.19
		c0.65-0.11,1.19-0.94,1.77-1.44c-0.48-0.49-0.87-1.19-1.45-1.43c-0.87-0.35-1.93-0.66-2.81-0.49c-4.45,0.82-8.65-1.07-13.03-0.99
		c-1.33,0.03-2.76-0.38-3.08-2.5c0.88-0.15,1.67-0.45,2.43-0.39c3.49,0.28,6.96,0.68,10.44,0.98c1.06,0.09,2.14,0.07,3.2-0.04
		c1.16-0.12,2.67-0.25,2.75-1.64c0.1-1.65-1.56-1.69-2.78-1.97c-0.1-0.02-0.21-0.02-0.32-0.03c-4.03-0.33-8.06-0.67-12.1-1
		c-0.97-0.08-1.95-0.13-2.21-1.43c0.86-1.56,2.19-1.57,3.8-1.3c2.09,0.35,4.22,0.45,6.34,0.61c0.52,0.04,1.18,0.07,1.56-0.19
		c0.63-0.43,1.48-1.1,1.5-1.69c0.02-0.58-0.79-1.62-1.37-1.73c-2.3-0.43-4.65-0.57-6.98-0.83c-1.18-0.13-2.64,0.2-3.08-1.95
		c0.96-0.2,1.84-0.53,2.71-0.52c1.81,0.03,3.61,0.27,5.42,0.39c1.93,0.13,3.11-0.52,3.3-1.75c0.19-1.23-0.85-2.2-2.71-2.48
		c-0.53-0.08-1.06-0.07-1.6-0.1c-1.49-0.07-2.99-0.08-4.47-0.21c-1.28-0.11-2.24-0.6-1.84-2.35c0.57-0.03,1.07-0.11,1.57-0.07
		c3.39,0.25,6.78,0.56,10.17,0.79c0.95,0.06,2.01,0.11,2.84-0.23c0.76-0.31,1.75-1.16,1.77-1.8c0.02-0.68-0.86-1.66-1.59-2
		c-0.92-0.42-2.08-0.34-3.14-0.43c-3.16-0.27-6.33-0.48-9.49-0.79c-0.39-0.04-0.72-0.58-1.08-0.88c0.36-0.32,0.7-0.67,1.09-0.94
		c0.14-0.1,0.42-0.01,0.63,0c3.19,0.21,6.39,0.45,9.58,0.64c1.06,0.06,2.14,0.11,3.19-0.02c1.28-0.16,2.19-0.88,2.25-2.25
		c0.05-1.25-0.8-1.97-1.9-2.21c-1.24-0.27-2.53-0.31-3.8-0.43c-2.55-0.23-5.1-0.4-7.64-0.67c-0.49-0.05-0.94-0.49-1.41-0.75
		c2.36-0.38,4.57-0.37,6.77-0.39c0.96-0.01,2.02,0.15,2.85-0.2c0.88-0.38,1.87-1.14,2.2-1.96c0.45-1.17-0.66-1.98-1.67-2.31
		c-1.19-0.39-2.48-0.51-3.75-0.63c-1.31-0.13-2.64-0.11-3.95-0.16c0-0.26-0.01-0.52-0.01-0.77c1.46-0.46,3.04-0.12,4.54-0.28
		c1.26-0.13,2.65-0.14,3.69-0.71c0.75-0.4,1.35-1.62,1.42-2.52c0.1-1.24-1.06-1.69-2.2-1.81c-0.85-0.09-1.72-0.02-2.56-0.15
		c-0.78-0.12-1.52-0.42-2.24-0.62c0.59-3.92-0.04-5.07-3.06-5.46c-2.54-0.33-5.1-0.52-7.66-0.58c-2.59-0.05-3.77,1.78-2.48,3.95
		c0.77,1.3,0.85,2.46,0.66,3.87c-0.56,4.22-0.36,8.48-1.31,12.72c-0.97,4.32-1.56,8.93-1.08,13.29c0.38,3.52-2.26,6.95,0.02,10.35
		c0.09,0.13,0.04,0.45-0.06,0.61c-1.33,2.04-0.83,3.97,0.73,6.09c-0.47,0.27-0.84,0.48-1.2,0.71c-1.81,1.17-2.7,2.54-1.63,4.78
		c0.32,0.67,0.02,1.86-0.4,2.58c-0.7,1.19-1.05,2.31-0.44,3.56c0.57,1.19,0.25,2.11-0.39,3.22c-0.47,0.81-0.7,2.07-0.42,2.94
		c0.46,1.45,0.38,2.59-0.51,3.83c-0.33,0.45-0.52,1.34-0.29,1.78c1.03,1.98,0.83,3.75-0.45,5.52c-0.2,0.27-0.15,0.88,0.03,1.22
		c0.87,1.65,0.22,2.89-0.73,4.32c-1.23,1.85-0.01,4.12,2.26,4.5c0.92,0.15,1.91-0.07,2.86-0.08c2.76-0.03,5.52-0.05,8.28-0.04
		c0.74,0,1.49,0.17,2.23,0.13c1.15-0.07,2.14-0.56,2.35-1.76c0.25-1.37-0.85-1.81-1.91-2.08c-0.71-0.18-1.47-0.19-2.21-0.24
		c-1.91-0.11-3.84-0.09-5.73-0.33C1023.19,268.34,1022.3,267.76,1021.27,267.35z M1098.05,575.74c0.98,0.28,1.75,0.6,2.55,0.71
		c13.01,1.81,26.03,3.52,39.03,5.43c3.68,0.54,6.99-0.11,10.25-1.61c5.89-2.71,11.76-5.46,17.67-8.14
		c5.62-2.55,11.29-4.98,16.89-7.57c1.82-0.84,3.56-1.92,5.18-3.09c1.16-0.84,1.02-1.85-0.25-2.48c-1.03-0.52-2.18-0.89-3.33-1.08
		c-9.16-1.53-18.33-2.99-27.49-4.51c-2.22-0.37-4.15,0.01-6.1,1.19c-4.72,2.87-9.48,5.68-14.34,8.33
		c-6.09,3.32-12.45,6.1-19.25,7.66c-5.92,1.36-11.94,2.33-17.91,3.48C1100,574.24,1098.79,573.96,1098.05,575.74z M1009.77,364.38
		c0.02,0.17,0.04,0.33,0.05,0.5c4.35-0.21,8.72-0.34,13.06-0.68c2.1-0.17,4.43-0.3,6.2-1.25c2.67-1.44,4.98-3.56,7.38-5.45
		c1.23-0.97,1.69-2.32,1.73-3.89c0.09-3.32-0.65-6.44-1.97-9.47c-0.84-1.93-2.27-3.11-4.4-3.09c-2.96,0.03-5.96,0.03-8.87,0.47
		c-7.37,1.11-14.71,2.46-22.06,3.72c-4.23,0.73-6.15,2.67-7.08,6.89c-0.49,2.25-1.1,4.48-1.8,6.67c-1,3.12,0.85,6.39,4.14,6.7
		c2.1,0.2,4.26,0.01,6.38-0.18C1004.96,365.11,1007.36,364.7,1009.77,364.38z M937.55,622.75c0.61,1,0.83,1.59,1.24,1.97
		c2.78,2.6,5.63,5.11,8.39,7.72c2.35,2.23,5.16,3.13,8.36,3.43c3.37,0.32,6.96,0.37,10,1.62c4.27,1.76,8.79,1.33,13.11,2.52
		c4.68,1.29,9.63,1.65,14.48,2.32c1,0.14,2.37,0.24,3.05-0.29c3-2.33,5.85-4.85,8.65-7.42c0.87-0.8,0.53-1.77-0.62-2.22
		c-0.59-0.23-1.24-0.31-1.86-0.41c-11.69-1.82-23.38-3.65-35.08-5.44c-8.43-1.29-16.86-2.56-25.3-3.78
		C940.68,622.59,939.35,622.75,937.55,622.75z M1056.24,478.6c-1.66,0.13-2.92,0.28-4.19,0.33c-1.71,0.07-3.43-0.06-5.12,0.11
		c-2.62,0.26-3.49,1.62-2.89,4.04c0.33,1.32,0.83,2.68,0.76,3.99c-0.15,2.59,0.92,5.32-0.99,7.78c-0.94,1.21-0.52,2.68,0.58,3.73
		c2.77,2.65,3.32,7.03,7.19,8.82c0.17,0.08,0.21,0.39,0.37,0.5c1.01,0.71,1.95,1.69,3.08,2.05c2.53,0.8,5.14,1.38,7.76,1.88
		c4.58,0.86,7.79-1.96,7.4-6.5c-0.13-1.45-0.65-2.85-0.94-4.29c-0.74-3.67-1.44-7.36-2.19-11.03c-0.31-1.53-0.55-3.1-1.13-4.53
		c-1.21-3-2.97-3.79-6.26-3.1c-1.95,0.41-2.73-0.08-3.14-2.01C1056.41,479.87,1056.36,479.37,1056.24,478.6z M769.73,409.81
		c-0.89,0.37-2.2,0.54-2.4,1.09c-0.29,0.83-0.12,2.15,0.41,2.87c1.85,2.5,4.1,4.36,7.53,4.78c9,1.1,17.98,2.39,26.94,3.75
		c6.74,1.02,13.54,1.83,19.94,4.43c1.14,0.46,2.51,0.51,3.78,0.54c2.76,0.06,4.07-1.03,4.67-3.74c0.18-0.82,0.3-1.66,0.35-2.49
		c0.17-2.98-1.03-4.56-4.1-4.92c-1.88-0.22-3.82,0.06-5.74,0.08c-1.58,0.01-3.18,0.04-4.75-0.09c-2.44-0.2-4.86-0.52-7.29-0.8
		c-2.01-0.23-4.01-0.48-6.02-0.72c-1.37-0.17-2.75-0.32-4.12-0.5c-2.11-0.26-4.23-0.5-6.33-0.81
		C784.99,412.15,777.41,410.98,769.73,409.81z M1066.68,202.75c-1.18-0.1-1.8-0.13-2.42-0.21c-2.83-0.38-3.08-0.68-2.83-3.36
		c0.05-0.52,0.16-1.04,0.23-1.56c0.47-3.64,1.02-7.27,1.36-10.91c0.2-2.14-0.94-3.59-2.56-3.76c-1.59-0.16-3.27,1.04-3.57,2.96
		c-1,6.53-1.79,13.08-1.44,19.71c0.07,1.36,0.56,2.56,1.98,2.92c3.75,0.94,7.57,1.23,11.39,0.61c0.94-0.15,2.2-0.89,2.52-1.68
		c1.04-2.53,3.03-2.61,5.25-2.49c0.64,0.03,1.28,0.03,1.92-0.02c2.7-0.21,3.85-1.08,4.38-3.73c0.47-2.36,0.67-4.76,0.96-7.15
		c0.64-5.22-5.03-10.63-10.61-10.08c-3.21,0.31-4.56,1.06-5.06,4.15c-0.6,3.72-0.9,7.48-1.3,11.22
		C1066.78,200.38,1066.76,201.4,1066.68,202.75z M1027.96,479.59c1.82,0.17,3.3-0.4,4.62-1.67c1.05-1.01,2.32-1.81,3.52-2.68
		c1.82-1.31,2.06-2.12,0.67-3.84c-1.05-1.3-1.6-2.74-0.69-4.03c1.45-2.05,1.26-4.37,1.81-6.57c0.55-2.21-0.19-3.7-2.17-4.65
		c-1.14-0.54-2.33-1.12-3.56-1.31c-3.99-0.65-8-1.18-12.02-1.63c-1.01-0.11-2.16,0.08-3.09,0.48c-0.68,0.29-1.63,1.19-1.57,1.73
		c0.22,2.14,0.51,4.34,1.28,6.34c1.09,2.84,2.07,5.55,1.19,8.66c-0.67,2.38,0.06,3.57,2.26,4.93c1.07,0.66,2.27,1.31,3.02,2.25
		C1024.49,479.22,1026.02,479.77,1027.96,479.59z M562.16,578.48c0.25,0.53,0.42,1.1,0.75,1.58c2.54,3.74,5.11,7.46,7.68,11.18
		c1.44,2.08,2.92,4.12,4.33,6.21c0.87,1.29,1.71,2.6,2.43,3.97c1.26,2.42,2.4,4.9,3.61,7.35c1.03,2.09,2.51,3.34,5.1,2.73
		c0.69-0.16,1.49,0,2.21,0.14c3.22,0.66,6.44,1.36,9.65,2.08c0.95,0.21,2.09,0.66,2.51-0.5c0.71-1.96,1.32-4,1.56-6.05
		c0.08-0.73-0.9-2.08-1.67-2.32c-3.3-1.04-5.55-3.43-8.08-5.5c-1.79-1.47-3.74-2.75-5.64-4.08c-1.21-0.85-2.5-1.57-3.69-2.44
		c-3.41-2.49-6.37-5.63-10.51-7.06c-2.52-0.87-4.43-2.39-5.93-4.56C565.54,579.86,564.38,578.6,562.16,578.48z M1203.71,669.24
		c13.77,3.6,27.8,5.92,42.04,8.26c0.37-2.38,1.91-2.83,3.89-2.84c1.03-0.01,2.12-0.36,3.06-0.79c2.11-0.97,2.37-2.85,0.45-4.14
		c-1.56-1.05-3.42-1.67-5.14-2.47c-0.95-0.44-2.15-0.66-2.81-1.37c-1.93-2.03-4.29-2.19-6.78-1.86c-4.79,0.63-9.44,0.73-13.92-1.59
		c-2.36-1.22-3.64-0.69-5.7,1.36c-0.39,0.39-1.09,0.65-1.65,0.64c-1.06-0.01-2.11-0.25-3.17-0.39c-0.74-0.1-1.48-0.27-2.22-0.28
		c-0.98-0.01-2.17,0.09-2.16,1.28c0,0.57,0.89,1.31,1.55,1.67c0.72,0.39,1.63,0.45,2.46,0.63c1.55,0.32,2.63,1.17,3.49,2.78
		C1212.38,670.69,1208.27,667.71,1203.71,669.24z M984.91,371.13c1.2,2.07,2.66,2.79,4.33,3.21c5.89,1.47,11.76,3.02,17.68,4.34
		c6.56,1.46,13.17,2.77,19.96,2.08c1.37-0.14,2.8-0.28,4.05-0.78c3-1.21,4.03-4.61,2.42-7.34c-0.64-1.08-1.22-2.19-1.79-3.3
		c-1.1-2.16-2.79-3.1-5.26-2.43c-6.3,1.71-12.77,2.33-19.2,3.27c-6.57,0.97-13.13,1.52-19.75,0.64
		C986.77,370.73,986.15,370.96,984.91,371.13z M1031.45,649.9c0.9-0.37,2.35-0.64,3.36-1.43c2.67-2.08,5.23-4.31,7.67-6.65
		c1.98-1.9,1.62-3.13-1.02-3.58c-7.57-1.3-15.16-2.5-22.75-3.66c-0.89-0.13-2.14-0.07-2.73,0.44c-2.56,2.21-5.03,4.53-7.34,7
		c-1.08,1.15-0.65,2.39,0.83,3.04c1.16,0.51,2.42,0.82,3.66,1.09c5.1,1.09,10.22,2.13,15.33,3.18
		C1029.28,649.51,1030.12,649.65,1031.45,649.9z M1102.46,205.66c1.12,0,1.66,0,2.19,0c4.02-0.02,5.37-1.11,6.01-4.96
		c0.28-1.65,0.44-3.32,0.69-4.97c0.77-5.18-3.3-11.24-10.41-10.46c-2.92,0.32-4.39,1.14-4.86,4c-0.64,3.81-1.07,7.67-1.37,11.52
		c-0.19,2.51,1.04,3.9,3.58,4.42C1099.84,205.52,1101.45,205.56,1102.46,205.66z M411.39,312.97c-1.38-1.92-2.47-3.7-3.82-5.26
		c-1.22-1.41-1.98-2.87-2.32-4.71c-0.68-3.7-1.48-7.39-2.47-11.02c-0.9-3.33-2-3.68-4.96-2.08c-0.56,0.3-1.33,0.38-1.71,0.81
		c-1.22,1.39-2.55,2.78-3.32,4.4c-0.36,0.77,0.47,2.07,0.71,3.14c0.15,0.69,0.32,1.42,0.27,2.12c-0.1,1.61,0.55,2.83,1.7,3.89
		c0.58,0.53,1.09,1.12,1.98,2.03c-3.47,0.63-5.15,2.27-4.67,5.18C398.69,314.31,404.65,315.89,411.39,312.97z M761.4,414.15
		c-0.23-0.6-0.34-1.1-0.61-1.52c-1.98-3.17-4.98-4.77-8.63-5.4c-4.31-0.74-8.63-1.45-12.91-2.34c-3.23-0.67-6.41-1.61-9.61-2.4
		c-2.88-0.71-5.55,1.05-6.17,4.04c-0.47,2.3,0.82,3.86,3.84,4.35c9.05,1.49,18.12,2.94,27.18,4.35
		C756.84,415.6,759.14,415.5,761.4,414.15z M1126.04,702.68c-2.45,0.67-4.39,1.2-6.33,1.74c-2.04,0.58-3.15,1.9-3.44,4.11
		c1.96,0.68,3.11,2.72,5.48,2.35c1.96-0.3,3.94-0.46,5.79-0.66c0.55,1.15,0.77,2.51,1.36,2.69c2.02,0.6,2.92,2.43,4.5,3.41
		c1.84,1.14,3.87,1.99,5.83,2.95c0.17,0.08,0.42,0,0.63,0.03c1.23,0.17,2.49,0.27,3.69,0.57c1.11,0.28,2.21,0.47,2.92-0.52
		c1.09-1.5,2-3.12,2.96-4.7c0.07-0.12-0.06-0.44-0.2-0.57c-1.31-1.2-2.46-2.86-4.02-3.46c-2.56-0.99-4.72-2.34-6.67-4.18
		c-0.75-0.71-1.68-1.31-2.79-0.5c0.34,1.2,0.65,2.31,1.01,3.55c-3.2,0.38-2.27-2.15-3.12-3.46
		C1131.01,705.22,1127.4,706.5,1126.04,702.68z M1179.73,419.17c0.72,1.42,2.09,1.72,3.63,1.92c8.53,1.15,17.04,2.39,25.56,3.55
		c3.38,0.46,6.83,1.37,10.14,1.04c2.88-0.29,5.47-0.84,7.9,1.11c4.36,0.17,8.71,0.37,13.07,0.46c0.5,0.01,1.01-0.62,1.51-0.95
		c-0.38-0.55-0.64-1.41-1.16-1.62c-4.69-1.87-9.53-3.18-14.63-2.15c-1.85,0.37-3.3,0.17-4.79-0.89c-0.75-0.53-1.7-0.99-2.6-1.1
		c-5.07-0.59-10.15-1.42-15.24-1.47c-5.16-0.05-10.18-0.86-15.25-1.47c-1.79-0.22-3.61-0.3-5.42-0.32
		C1181.25,417.29,1180.1,417.58,1179.73,419.17z M1001.33,106.1c5.74,0,9.8,0.07,13.86-0.03c1.58-0.04,3.17-0.39,4.71-0.78
		c0.5-0.12,1.21-0.85,1.18-1.24c-0.05-0.6-0.55-1.48-1.07-1.67c-1.18-0.42-2.47-0.57-3.74-0.69c-5.21-0.47-10.42-0.98-15.64-1.29
		c-4.89-0.29-9.79-0.42-14.69-0.42c-1.17,0-2.5,0.6-3.46,1.32c-1.6,1.18-1.49,2.66,0.03,3.97c1.38,1.2,3.07,1.38,4.81,1.32
		C992.54,106.4,997.77,106.22,1001.33,106.1z M918.92,387.45c0.16-3.56-0.71-5.51-2.81-5.94c-4.34-0.89-8.36-0.2-9.71,5.42
		c-0.82,3.41,0.08,6.65,1.03,9.87c0.84,2.86,2.77,4.14,5.68,4.02c2.54-0.11,4.26-1.66,4.74-4.64
		C918.34,393.08,918.62,389.95,918.92,387.45z M725.23,358.26c1.08,1.83,2.49,2.5,3.99,3.05c3.79,1.4,7.57,2.81,11.38,4.16
		c4.8,1.7,7.37-0.39,6.44-5.3c-0.46-2.42-0.91-4.68,0.86-6.88c0.85-1.07,0.52-2.45-0.64-3.37c-1.2-0.95-2.24-0.32-3.09,0.55
		c-2.95,3.02-6.74,4.23-10.75,5.15C730.76,356.24,728.01,356.66,725.23,358.26z M796.05,375.41c0.01-0.28,0.03-0.56,0.04-0.83
		c-0.9-0.41-1.77-1.01-2.71-1.19c-7.54-1.37-15.08-2.72-22.64-3.9c-1.68-0.26-3.53-0.63-5.74,0.33c0.74,0.78,1.16,1.52,1.8,1.84
		c2.84,1.4,5.69,2.81,8.65,3.96c3.91,1.52,8.35,1.81,11.57,4.95c0.4,0.39,1.21,0.67,1.76,0.58c0.88-0.14,2.22-0.43,2.46-1.01
		C792.16,377.86,794,376.57,796.05,375.41z M717.59,690.39c0.25,0.51,0.46,0.99,0.72,1.43c0.26,0.46,0.54,0.91,0.87,1.32
		c1.01,1.25,2.6,1.31,3.44,0.01c0.35-0.54,0.45-1.41,0.31-2.05c-0.47-2.07-0.26-3.88,1.08-5.65c0.48-0.64,0.4-1.74,0.44-2.64
		c0.03-0.72-0.35-1.49-0.2-2.16c0.9-3.98,1.64-8.02,2.93-11.88c1.72-5.13,2.28-10.72,5.83-15.2c0.21-0.26,0.05-1.1-0.24-1.37
		c-0.3-0.29-1.02-0.43-1.43-0.28c-0.55,0.2-1.16,0.65-1.44,1.15c-1.33,2.39-2.86,4.73-3.76,7.27c-1.68,4.74-3.24,9.53-3.66,14.62
		c-0.19,2.22-0.4,4.72-2.38,6.32c-1.36,1.1-1.44,2.18-0.69,3.56c0.89,1.63,0.48,3.01-0.84,4.25
		C718.2,689.44,717.95,689.91,717.59,690.39z M267.53,332.5c-0.55-3.77-1.07-7.39-1.63-11c-0.06-0.4-0.2-0.94-0.49-1.13
		c-0.74-0.47-1.62-1.11-2.38-1.04c-0.56,0.05-1.27,1.04-1.48,1.73c-0.27,0.86,0.2,2-0.17,2.77c-1.53,3.15-1.17,6.53-1.53,9.82
		c-0.27,2.48,0.51,4.58,2.37,6.2c1.9,1.65,3.69,1.11,4.29-1.3C267,336.54,267.21,334.45,267.53,332.5z M1068.39,175.86
		c-0.88,0.17-2.11,0.18-3.14,0.64c-2.21,0.99-2.36,3-0.45,4.46c1.26,0.97,2.68,1.01,4.24,0.9c5.89-0.44,11.79-1.18,17.68,0.24
		c1.79,0.43,3.72-1.02,3.77-2.54c0.04-1.34-1.28-2.32-3.23-2.31c-0.63,0-1.27,0.16-1.9,0.23c-0.84,0.1-1.71,0.34-2.53,0.24
		c-3.13-0.38-6.34,0.05-9.42-1.07C1071.95,176.11,1070.27,176.13,1068.39,175.86z M1182.73,212.59c2.16,2.33,4.53,3.29,7.56,2.93
		c1.66-0.2,3.37-0.02,5.06,0.02c2.98,0.06,5.96,0.18,8.93,0.19c0.71,0,1.6-0.15,2.08-0.58c0.56-0.5,1.04-1.39,1.04-2.11
		c-0.01-0.45-0.92-1.01-1.54-1.29c-0.66-0.3-1.44-0.41-2.17-0.46c-5.4-0.39-10.8-0.8-16.2-1.08
		C1185.69,210.12,1183.86,210.38,1182.73,212.59z M655.76,682.08c-0.43-0.93-0.98-1.74-1.17-2.63c-0.16-0.75-0.21-1.96,0.24-2.31
		c1.92-1.53,2.43-3.24,1.54-5.48c-0.17-0.43,0-1.06,0.18-1.54c1.46-3.9,1.85-8.17,4.21-11.77c0.26-0.4,0.09-1.07,0.13-1.84
		c-2.05,1.61-2.64,2.7-3.62,5.61c-1.56,4.62-2.57,9.51-6.64,13c1.69,1.98,1.98,3.76-0.11,5.56c-0.44,0.38-0.63,1.75-0.29,2.17
		c1.41,1.77,0.84,3.54,0.44,5.39c-0.78,3.58-1.5,7.18-2.18,10.78c-0.16,0.83-0.54,1.88,1.2,2.47c0.22-1.45,0.32-2.75,0.63-4.02
		C651.6,692.19,651.16,686.31,655.76,682.08z M741.17,655.12c-0.7-0.29-1.54-0.9-1.82-0.71c-0.8,0.53-1.69,1.29-1.99,2.15
		c-1.44,4.15-2.86,8.31-3.98,12.55c-0.9,3.42-1.25,6.98-2.09,10.43c-0.41,1.69-1.14,3.38-2.1,4.84c-1.21,1.84-1.49,3.48-0.09,4.97
		c0.42,0.45,1.31,0.81,1.89,0.7c1.73-0.33,2.58-1.88,2.01-3.55c-0.95-2.74-0.14-5.35,0.51-7.95c0.51-2.02,1.37-3.95,1.93-5.97
		c1.09-3.91,1.23-8.07,3.16-11.77c0.71-1.37,1.24-2.83,1.86-4.25C740.61,656.19,740.81,655.83,741.17,655.12z M1135.48,220.12
		c0,0.01,0,0.01,0,0.02c2.66,0,5.32,0.02,7.98-0.01c1.18-0.01,2.11-0.5,2.24-1.77c0.14-1.34-0.57-2.21-1.88-2.51
		c-0.61-0.14-1.27-0.05-1.91-0.09c-0.95-0.06-1.9-0.15-2.86-0.2c-4.23-0.22-8.46-0.44-12.69-0.64c-0.53-0.02-1.18-0.07-1.56,0.19
		c-0.73,0.49-1.6,1.09-1.87,1.84c-0.4,1.11,0.31,2.14,1.46,2.41c1.75,0.4,3.55,0.63,5.34,0.75
		C1131.64,220.22,1133.56,220.12,1135.48,220.12z M1161.03,462.34c2.23,0.02,3.46-0.88,3.64-2.37c0.2-1.68-0.84-2.84-2.81-3.09
		c-0.21-0.03-0.43-0.05-0.64-0.03c-1.82,0.19-3.22-0.45-4.58-1.69c-0.86-0.78-2.21-1.32-3.4-1.43c-2.45-0.23-4.71,2.15-4.66,4.57
		c0.05,2.36,2.25,4.52,4.69,4.03C1156.06,461.77,1158.73,461.56,1161.03,462.34z M1059.15,265.72c0.15-2.93-1.38-4.45-4.71-4.67
		c-3.05-0.2-4.92,1.62-5.18,5.05c-0.22,2.98,1.68,4.72,5.31,4.84C1057.43,271.03,1058.97,269.27,1059.15,265.72z M1055.79,248.34
		c-3.21-0.03-4.89,1.62-4.91,4.81c-0.02,3.23,1.94,5.32,4.93,5.29c2.8-0.03,4.75-2.13,4.8-5.18
		C1060.68,250.16,1058.92,248.37,1055.79,248.34z M1064.77,216.54c-0.1-0.72-0.21-1.66-0.37-2.59c-0.26-1.59-1.14-2.76-2.71-3.19
		c-1.76-0.48-3.4-0.13-4.64,1.31c-1.43,1.65-1.83,3.59-1.21,5.59c0.57,1.84,2.25,2.32,4.02,2.62
		C1063.13,220.85,1064.74,219.73,1064.77,216.54z M1063.79,227.5c0.1-1.96-1.03-3.76-2.66-4.46c-1.47-0.63-3.6-0.37-4.63,1.04
		c-1.15,1.57-2.13,3.37-2.71,5.21c-0.62,1.98,0.93,3.51,3.05,3.16c1.55-0.26,3.08-0.78,4.52-1.4
		C1062.96,230.36,1063.66,228.96,1063.79,227.5z M1248.66,423.98c-0.04,0.11-0.08,0.22-0.13,0.33c-0.53,0.07-1.06,0.11-1.58,0.23
		c-1.33,0.31-3.1,0.41-3.08,2.14c0.02,1.8,1.83,1.6,3.14,1.97c4.28,1.2,8.95-0.54,13.07,1.71c0.09,0.05,0.22,0.06,0.31,0.03
		c0.95-0.35,1.96-0.62,2.79-1.15c0.24-0.16,0.15-1.23-0.13-1.67c-0.67-1.04-1.74-1.53-3.04-1.26c-0.31,0.06-0.62,0.17-0.9,0.32
		c-1.05,0.59-1.91,0.26-2.98-0.18C1253.72,425.47,1251.16,424.79,1248.66,423.98z M499.18,341.31c-0.13,4.31-0.11,8.46-0.41,12.6
		c-0.31,4.23-0.21,8.4,0.43,12.9c1.18-2.23,1.46-4.31,1.61-7.75c0.25-5.83,0.61-11.66,0.99-17.48c0.13-1.98-0.8-3.39-2.61-3.57
		c-1.83-0.19-2.89,0.96-2.98,3.31C497.13,341.31,498.04,341.31,499.18,341.31z M1058.18,404.44c-0.58-1.57-1.65-2.57-3.2-2.83
		c-3.15-0.53-6.32-0.98-9.5-1.3c-1.86-0.19-3.19,0.84-3.31,2.23c-0.11,1.28,0.81,2.28,2.68,2.58c2.94,0.47,5.9,0.89,8.87,1.17
		C1055.44,406.45,1057.13,406.16,1058.18,404.44z M471.94,340.01c7.71-3.74,14.3-19.47,11.3-24.12c-1.69,3.97-3.26,7.94-5.07,11.81
		C476.32,331.67,474.23,335.53,471.94,340.01z M1061.78,241.93c-0.15-0.82-0.29-2.3-0.73-3.69c-0.61-1.9-2.76-2.79-5.01-2.28
		c-1.84,0.43-2.64,1.64-2.48,3.8c0.16,2.1,1.24,3.78,2.65,5.24c1.07,1.1,2.47,1.21,3.85,0.63
		C1061.4,245.08,1061.87,243.94,1061.78,241.93z M1168.39,209.51c0-0.09,0-0.18,0-0.27c-0.74,0.04-1.57-0.11-2.21,0.16
		c-0.79,0.35-1.86,0.96-2,1.62c-0.14,0.69,0.48,1.92,1.13,2.28c1.05,0.59,2.39,0.85,3.63,0.92c2.21,0.12,4.44-0.01,6.66-0.05
		c2.23-0.03,3.98-1.15,3.9-2.47c-0.07-1.22-1.54-2.13-3.79-2.18C1173.27,209.47,1170.83,209.51,1168.39,209.51z M1146.39,303.3
		c4.27,0.33,6.42-2.86,9.02-5.21c0.29-0.27,0.15-1.51-0.23-1.88c-1.27-1.26-5.62-0.69-6.56,0.91c-0.68,1.16-1.53,1.63-2.76,1.79
		c-0.84,0.11-1.73,0.21-2.48,0.55c-0.6,0.27-1.52,0.98-1.45,1.33c0.14,0.68,0.74,1.5,1.38,1.81
		C1144.23,303.05,1145.35,303.09,1146.39,303.3z M457.5,308.84c1.87,1.85,1.87,1.85,4.29,1.34c-1.07-1.97-1.06-3.85,0.25-5.78
		c0.46-0.67,0.18-1.82,0.26-2.75c0.12-1.5,0.26-2.99,0.45-5.22c-0.66-1.78-1.81-4.15-4.39-5.96c0,0.84-0.05,1.4,0.01,1.96
		C458.94,297.98,460.5,303.58,457.5,308.84z M1151.06,244.09c-0.12,1.25,0.17,2.62-0.39,3.35c-1.35,1.77-0.97,3.81-1.37,5.7
		c-0.29,1.39,0.62,2.36,2.06,2.71c1.67,0.41,3.48-0.14,3.71-1.54c0.32-1.91,0.62-4.08-0.03-5.79c-0.56-1.47-0.91-2.58,0.11-3.9
		C1153.66,243.59,1152.39,243.18,1151.06,244.09z M1191.51,251.4c-1.56-0.42-2.63-0.86-3.73-0.97c-1.47-0.15-2.98-0.1-4.47-0.03
		c-1.08,0.05-2.72-0.42-2.82,1.19c-0.08,1.4,1.46,1.13,2.46,1.31c2.16,0.38,2.13,0.39,2.32,2.86c0.04,0.58,0.2,1.55,0.52,1.65
		c1.19,0.34,2.46,0.51,3.71,0.52c1.17,0.01,2.57,0.28,3.4-1.39C1190.14,255.72,1190.11,253.95,1191.51,251.4z M457.82,329.33
		c-2.32-1.66-4.99-2.08-6.58-0.89c-2.04,1.53-2.53,3.67-2.09,6.02C453.79,336.06,455.8,334.86,457.82,329.33z M1141.89,616.26
		c-1.92-2.35-4.32-1.63-6.42-1.94c-2.21-0.32-4.41-0.68-6.62-0.98c-2.32-0.31-4.65-0.54-6.96-0.86c-2.21-0.3-4.4-0.81-6.62-0.96
		c-2.08-0.14-4.16-1.1-6.73-0.29C1113.55,612.8,1139.32,616.75,1141.89,616.26z M607.66,609.56c-1.41,1.95-1.57,3.9-1.54,5.86
		c0.01,0.55,0.35,1.31,0.79,1.59c1.65,1.05,3.51,1.53,5.44,0.92c1.45-0.46,2.07-2.12,1.12-3.26
		C611.89,612.77,610.31,610.81,607.66,609.56z M974.12,564.32c1.3,0.29,2.33,0.62,3.38,0.73c1.28,0.14,2.3-0.68,2.21-1.67
		c-0.1-1.12-0.98-1.23-1.87-1.24c-1.28-0.02-2.58,0.11-3.83-0.06c-2.82-0.4-5.64-0.87-8.42-1.48c-0.98-0.21-1.86-0.61-2.61,0.28
		c-0.23,0.27-0.35,1.03-0.21,1.12c0.73,0.48,1.66,1.26,2.33,1.12c2.94-0.61,4.93,0.56,6.6,2.73c0.14,0.19,0.58,0.16,0.98,0.25
		C973.13,565.55,973.58,564.99,974.12,564.32z M517.09,794.06c-5.59,1.71-10.87,3.71-13.14,10.54c1.49-0.4,2.54-0.39,3.12-0.89
		c2.12-1.83,4.08-3.84,6.1-5.77c0.92-0.87,1.87-1.71,2.78-2.59C516.36,794.94,516.71,794.49,517.09,794.06z M579.46,755.58
		c1.21,1.11,2.3,1.52,3.43,0.76c1.02-0.68,1.87-1.61,2.68-2.32c1.18,0.43,2.04,0.74,3.08,1.12c0.69-0.92,1.39-1.7,1.92-2.58
		c0.65-1.08,0.33-2.19-0.73-2.67c-0.53-0.24-1.56,0.16-2.16,0.57c-0.85,0.57-1.5,1.41-2.22,2.12c-1.07-0.46-1.91-0.83-2.87-1.24
		C581.53,752.76,580.55,754.09,579.46,755.58z M1270.81,431.93c1.08-0.21,2.16-0.27,3.11-0.65c0.98-0.39,1.41-1.22,0.8-2.28
		c-1.43-2.5-6.14-3-8.07-0.86c-0.95,1.06-0.82,2.19,0.52,2.77C1268.31,431.41,1269.58,431.6,1270.81,431.93z M993.93,330.46
		c0-1.84-1.13-3.1-2.84-3.17c-2-0.08-3.56,1.56-3.49,3.66c0.06,1.82,1.38,2.97,3.41,2.96C992.7,333.91,993.93,332.46,993.93,330.46z
		 M1101.24,212.61c-1.8,0.03-3.38,1.7-3.33,3.53c0.04,1.52,1.33,2.96,2.7,3.02c1.67,0.07,3.56-1.99,3.5-3.82
		C1104.07,213.74,1102.85,212.59,1101.24,212.61z M1164.52,305.17c2.23,0.03,3.55-0.71,3.75-2.08c0.21-1.44-0.7-2.2-3.17-2.71
		c-1.51-0.32-3.02-0.45-3.99,1c-0.35,0.52-0.57,1.46-0.33,1.97C1161.49,304.83,1162.96,305.17,1164.52,305.17z M961.81,19.61
		c2.01,0.17,3.05-0.96,3.93-2.1c0.49-0.64,0.92-1.78,0.66-2.43c-0.45-1.13-1.73-1.08-2.77-0.67c-1.18,0.46-2.34,1-3.4,1.67
		c-0.63,0.4-1.29,1.06-1.46,1.72c-0.08,0.31,0.89,0.99,1.49,1.34C960.8,19.44,961.47,19.51,961.81,19.61z M991.3,357.13
		c-0.02-1.52-1.46-2.79-3.21-2.84c-1.78-0.05-3.08,1.18-3.04,2.87c0.04,1.66,1.36,2.86,3.13,2.83
		C989.98,359.97,991.33,358.73,991.3,357.13z M1159.06,281.2c-2.2-0.02-3.83,0.88-3.75,2.07c0.08,1.17,1.8,2.28,3.69,2.38
		c2.39,0.12,4.06-0.75,4.02-2.09C1162.97,282.2,1161.33,281.22,1159.06,281.2z M727.88,702.02c1.48-2.35,2.58-4.07,3.67-5.8
		c0.65-1.03,0.38-2.87-0.59-3.73c-1.11-0.99-2.2-0.46-3.22,0.14c-1.36,0.8-1.12,1.92-0.39,2.96c0.8,1.14,0.85,2.28,0.56,3.58
		C727.74,699.94,727.88,700.76,727.88,702.02z M1097.52,182.83c1.68,0.2,3.18-0.76,3.36-2.16c0.18-1.41-1.23-2.99-2.86-3.23
		c-1.61-0.24-3.04,0.74-3.28,2.24C1094.49,181.24,1095.69,182.61,1097.52,182.83z M782.04,573.39c0-1.24,0-2.02,0-2.8
		c0-4.72-0.63-5.12-5.02-3.13c-0.17,0.08-0.26,0.3-0.57,0.67C777.7,570.2,778.76,572.47,782.04,573.39z M991.96,347.76
		c0.03-1.57-1.16-2.8-2.77-2.87c-1.74-0.08-3.01,1.18-2.98,2.96c0.02,1.6,0.96,2.58,2.53,2.66
		C990.56,350.61,991.93,349.43,991.96,347.76z M1137.64,184.25c1.78,0.04,3-0.97,2.97-2.48c-0.02-1.29-1.23-2.36-2.77-2.45
		c-1.45-0.08-3.07,1.15-3.21,2.44C1134.49,183.1,1135.84,184.21,1137.64,184.25z M441.77,788.69c-1.09,0.92-2.45,1.59-2.97,2.65
		c-0.58,1.2-0.43,2.75-0.48,4.15c-0.01,0.19,0.64,0.58,0.98,0.57c0.33-0.01,0.93-0.43,0.92-0.64c-0.13-1.94,1.16-2.64,2.65-3.38
		c0.41-0.2,0.6-1.29,0.5-1.9C443.29,789.69,442.55,789.36,441.77,788.69z M1146.66,228.1c1.53,0.01,3.31-1.29,3.3-2.41
		c-0.01-1.09-1.52-2.32-2.95-2.39c-1.54-0.08-2.86,0.92-2.97,2.24C1143.94,226.89,1145.16,228.1,1146.66,228.1z M310.71,345.65
		c0,2.6,1.05,4.81,2.58,6.66c0.77,0.92,2.35,1.34,3.88-0.15C315.08,349.87,313.4,347.36,310.71,345.65z M1075.71,215.8
		c0.97-0.05,1.66,0.07,2.22-0.15c0.6-0.24,1.47-0.77,1.5-1.22c0.03-0.5-0.69-1.44-1.18-1.51c-1.65-0.24-3.35-0.27-5.02-0.19
		c-0.45,0.02-1.27,0.84-1.2,1.14c0.13,0.59,0.66,1.31,1.22,1.53C1074.09,215.75,1075.1,215.72,1075.71,215.8z M915.44,407.8
		c0.01-1.33-0.91-2.34-2.08-2.28c-1.28,0.07-2.65,1.61-2.74,3.08c-0.09,1.46,0.89,2.66,2.12,2.62
		C914.15,411.17,915.43,409.55,915.44,407.8z M697.84,678.21c2.86,0.57,5.7,1.35,8.59,1.66c2.81,0.3,5.35,2.32,8.75,1.41
		C710.47,679.02,702.57,677.43,697.84,678.21z M1114.09,180.49c-0.06-1.17-1.6-2.46-2.88-2.42c-1.39,0.05-2.53,1.31-2.47,2.72
		c0.06,1.34,1.05,2.16,2.59,2.12C1112.89,182.88,1114.16,181.76,1114.09,180.49z M1154.17,618.25c2.76,1.77,6.07,1.3,9.04,2.23
		c0.58,0.18,1.32-0.13,1.98-0.22c0.07-0.22,0.14-0.45,0.21-0.67c-0.73-0.43-1.42-1.1-2.21-1.25
		C1160.24,617.81,1157.28,616.82,1154.17,618.25z M1162.26,224.16c-1.36-0.05-2.66,0.94-2.76,2.11c-0.11,1.22,0.98,2.32,2.4,2.41
		c1.63,0.11,3.4-1.03,3.42-2.2C1165.33,225.52,1163.61,224.21,1162.26,224.16z M987.77,24.28c0.03-1.29-1.02-2.41-2.34-2.5
		c-1.44-0.1-2.67,0.98-2.78,2.43c-0.1,1.38,1.13,2.53,2.66,2.48C986.63,26.65,987.74,25.56,987.77,24.28z M295.48,297.24
		c-1.56,2-2.12,4.17-0.62,6.29c1.05,1.49,1.56,3.02,1.69,4.76c0.01,0.08,0.34,0.13,0.52,0.2
		C297.45,305.3,296.76,300.3,295.48,297.24z M1106.29,171.79c-1.32-0.07-2.5,0.94-2.57,2.2c-0.07,1.24,1.03,2.41,2.32,2.47
		c1.29,0.06,2.88-1.27,2.86-2.38C1108.89,173.06,1107.52,171.86,1106.29,171.79z M939.25,576.2c-1.55,1.37-1.88,3.14-1.49,5.01
		c0.11,0.54,0.94,1.23,1.51,1.3c0.54,0.07,1.43-0.43,1.73-0.93C941.9,580.06,941.03,577.52,939.25,576.2z M645.57,719.22
		c1.78-4,3.06-8.11,2.81-12.53C646,710.57,646.07,714.95,645.57,719.22z M1147.26,237.02c2.17,0.03,3.45-0.82,3.29-1.91
		c-0.22-1.43-1.4-1.69-2.61-1.75c-0.62-0.03-1.29-0.01-1.88,0.17c-1.33,0.42-1.65,1.79-0.57,2.66
		C1146.11,236.68,1146.96,236.88,1147.26,237.02z M1182.05,596.08c-2.9-3.29-6.16-3.99-10.01-1.78
		C1175.51,594.92,1178.78,595.5,1182.05,596.08z M1186.56,622.6c-3.11-1.05-6.21-2.33-10.11-1.46
		C1178.96,622.82,1182.87,623.43,1186.56,622.6z M1191.73,732c0.07-0.25,0.14-0.5,0.22-0.76c-0.84-0.76-1.58-1.68-2.54-2.24
		c-0.72-0.42-1.75-0.6-2.59-0.48c-0.54,0.08-1.17,0.82-1.36,1.39c-0.1,0.29,0.63,1.15,1.1,1.26
		C1188.26,731.56,1190.01,731.74,1191.73,732z M704.97,686.85c3.7,0.64,6.82,3.65,10.91,2.66
		C712.53,687.56,708.85,686.8,704.97,686.85z M540.91,778.54c1.68-0.13,3.69-3.61,3.02-4.57c-0.27-0.39-1.38-0.75-1.54-0.59
		c-1,1.02-2.01,2.11-2.65,3.36C539.55,777.11,540.58,778.07,540.91,778.54z M267.88,357.13c-0.05-1.14-1.16-1.9-2.61-1.78
		c-1.17,0.1-2.11,0.57-2.07,1.91c0.03,1.1,1.23,1.87,2.61,1.75C267.02,358.91,267.82,358.36,267.88,357.13z M1160.19,593.03
		c0.05-0.28,0.11-0.57,0.16-0.85c-3.47-1.16-6.88-2.68-10.79-0.94C1153.1,591.84,1156.64,592.43,1160.19,593.03z M1015.04,598.73
		c-0.94-1.59-1.69-2.87-2.44-4.14c-0.05-0.09-0.12-0.18-0.2-0.24c-0.97-0.65-1.89-0.83-2.73,0.18
		C1012.26,598.73,1012.26,598.73,1015.04,598.73z M936.83,561.43c1.57,0.28,2.83-0.46,4.02-1.25c0.35-0.23,0.71-0.99,0.57-1.28
		c-0.22-0.47-0.81-0.96-1.32-1.06C938.35,557.5,937.15,558.83,936.83,561.43z M628.77,684c0.03,0.31,0.05,0.61,0.08,0.92
		c3.37-0.56,6.74-1.11,10.11-1.67c-0.04-0.27-0.08-0.53-0.13-0.8C635.37,682.18,632.07,683.07,628.77,684z M972.66,10.48
		c-1.73,0.06-2.91,1.08-2.8,2.11c0.11,1.02,0.84,1.41,1.8,1.36c1.21-0.07,2.4-1.28,2.1-2.28C973.59,11.12,972.9,10.72,972.66,10.48z
		 M1029.36,486.62c0.27-1.02,0.74-1.98,0.68-2.9c-0.04-0.62-0.85-1.19-1.31-1.79c-0.48,0.46-1.18,0.83-1.39,1.38
		C1026.73,484.91,1027.11,485.5,1029.36,486.62z M149.28,333.42c-0.7,1.78-0.93,3.44,0.22,5.21
		C151.65,335.96,151.61,334.71,149.28,333.42z M1178.79,627.09c2.92,1.48,5.5,1.49,7.32,0.09
		C1183.68,627.24,1181.57,625.83,1178.79,627.09z M642.11,741.04c-0.91,1.36-1.73,2.11-1.88,2.97c-0.16,0.94,0.79,1.43,1.75,1.33
		c1.11-0.11,1.84-0.82,1.66-1.89C643.52,742.78,642.88,742.21,642.11,741.04z M184.54,335.46c3-1.56,3.28-2.67,1.35-4.65
		C184.54,332.01,184.03,333.4,184.54,335.46z M1155.5,182.43c-1.51-0.65-2.24-1.16-3.03-1.27c-0.88-0.11-1.87,0.43-1.51,1.39
		c0.25,0.65,1.27,1.27,2.04,1.4C1153.52,184.04,1154.2,183.26,1155.5,182.43z M786.31,725.04c0.8-1.39,1.45-2.07,1.59-2.85
		c0.18-1.01-0.36-1.9-1.59-1.8c-1.19,0.1-1.59,1.04-1.4,2.03C785.04,723.11,785.58,723.72,786.31,725.04z M1145.7,267.38
		c-0.47-0.33-1.03-0.96-1.7-1.13c-0.97-0.24-2.13,0.03-2.1,1.22c0.01,0.5,1.05,1.15,1.74,1.41
		C1144.51,269.2,1145.32,268.88,1145.7,267.38z M525.15,310.76c3.79,1.5,4.59,1.44,5.52-0.2
		C528.04,309.49,527.85,309.5,525.15,310.76z M548.66,841.7c-0.94-0.69-1.76-1.47-1.9-1.37c-0.77,0.58-1.45,1.33-1.97,2.14
		c-0.07,0.12,1.11,1.34,1.3,1.24C546.9,843.31,547.56,842.6,548.66,841.7z M531.66,339.8c-1.48-0.9-2.24-1.68-3.11-1.82
		c-1.01-0.16-1.83,0.63-1.72,1.73c0.12,1.17,1.18,1.45,2.13,1.34C529.66,340.97,530.3,340.46,531.66,339.8z M290.26,297.3
		c-1.59,3.06-2.23,5.93-1.81,7.51C290.53,302.54,290.89,300.03,290.26,297.3z M1099.81,694.86c2.24,2.35,2.94,2.58,5.13,1.87
		C1103.68,695.23,1102.25,694.51,1099.81,694.86z M1154.62,687.21c-1.64-1.6-2.69-1.92-3.42-1.04c-0.25,0.3-0.3,1-0.12,1.35
		C1151.63,688.61,1152.58,688.53,1154.62,687.21z M1166.62,614.4c0.01-0.31,0.01-0.63,0.02-0.94c-2.49-0.26-4.98-0.53-7.46-0.79
		c-0.03,0.26-0.05,0.53-0.08,0.79C1161.6,613.77,1164.11,614.08,1166.62,614.4z M794.41,686.5c0.5-0.24,0.84-0.31,1.05-0.52
		c0.87-0.88,0.91-1.86,0.13-2.79c-0.2-0.24-0.84-0.38-1.12-0.25c-1.19,0.58-1.19,1.6-0.77,2.66
		C793.8,685.88,794.07,686.09,794.41,686.5z M1103.69,226.73c0.66-0.68,1.37-1.08,1.36-1.48c0-1.14-0.92-1.61-1.94-1.44
		c-0.44,0.08-1.18,0.99-1.1,1.13C1102.38,225.56,1102.99,226.04,1103.69,226.73z M856.58,442.65c-1.53,2.9-1.46,3.18,0.73,4.26
		C857.04,445.3,856.81,443.98,856.58,442.65z M1129.61,592.87c1.52,0.67,2.96,1.77,5.27,1.19
		C1133.08,592.44,1131.46,592.17,1129.61,592.87z M550.42,850.8c-0.82-0.71-1.53-1.59-1.77-1.48c-0.63,0.29-1.05,1.01-1.56,1.56
		c0.5,0.43,0.97,1.16,1.5,1.21C549.06,852.13,549.6,851.41,550.42,850.8z M603.3,692.62c-2.47-0.58-3.3,0.34-3.91,1.58
		c-0.1,0.2,0.05,0.7,0.23,0.81c0.31,0.19,0.9,0.36,1.09,0.21C601.46,694.6,602.1,693.85,603.3,692.62z M1114.23,306.1
		c-0.65,0.74-1.38,1.27-1.29,1.54c0.19,0.59,0.8,1.05,1.24,1.57c0.43-0.38,1.22-0.78,1.2-1.14
		C1115.34,307.5,1114.77,306.96,1114.23,306.1z M604.88,686.65c-2.64,0.47-2.93,0.95-1.83,2.96
		C604.25,688.97,604.96,688.09,604.88,686.65z M1139.11,609.48c-0.03,0.36-0.07,0.71-0.1,1.07c1.51,0.18,3.02,0.37,4.53,0.55
		c0.04-0.26,0.08-0.52,0.11-0.79C1142.14,610.03,1140.63,609.75,1139.11,609.48z M586.56,729.32c-0.31-0.01-0.61-0.03-0.92-0.04
		c-0.25,1.61-0.5,3.23-0.76,4.84c0.27,0.04,0.55,0.08,0.82,0.11C585.99,732.59,586.27,730.95,586.56,729.32z M1175.87,653.15
		c0.58-0.64,1.23-1.04,1.26-1.47c0.07-1.07-0.85-1.38-1.7-1.2c-0.44,0.09-1.14,0.92-1.05,1.11
		C1174.63,652.14,1175.24,652.53,1175.87,653.15z M1159.27,246.8c0.48-0.74,1.02-1.29,0.92-1.46c-0.28-0.45-0.8-0.89-1.3-1.03
		c-0.26-0.07-0.71,0.52-1.07,0.81C1158.23,245.6,1158.64,246.07,1159.27,246.8z M479.95,824.34c-1.52,1.17-2.54,2.03-2.33,3.97
		C479.43,827.49,479.89,826.33,479.95,824.34z M791.89,694.08c0.22,0.08,0.44,0.16,0.66,0.25c1.41-1.67,1.41-1.67,0.66-4.2
		C792.68,691.72,792.29,692.9,791.89,694.08z M785,731.31c0.6-1.54,0.83-2.57-0.95-3.08C783.32,729.48,783.47,730.36,785,731.31z
		 M596.92,696.05c-0.24-0.22-0.48-0.44-0.72-0.65c-1.13,0.36-2.08,0.85-1.66,3.13C595.6,697.42,596.26,696.74,596.92,696.05z
		 M689.86,677.15c0.04-0.21,0.08-0.43,0.12-0.64c-1.41-0.81-1.41-0.81-3.02,0.3C688.21,676.96,689.04,677.06,689.86,677.15z
		 M1088.99,609.46c-1.71-2.28-1.78-2.3-4.11-1.11C1086.27,608.73,1087.37,609.03,1088.99,609.46z M975.58,593.5
		c0.12-0.22,0.24-0.44,0.36-0.66c-1.07-1.4-1.07-1.4-3.14-0.7C973.96,592.71,974.77,593.1,975.58,593.5z M835.05,764.37
		c-0.72-0.49-1.14-0.9-1.64-1.04c-0.15-0.04-0.78,0.72-0.72,1.03c0.06,0.36,0.61,0.84,1,0.9C834,765.31,834.4,764.82,835.05,764.37z
		 M1131.15,587.5c0.44,1.01,1.12,1.13,1.93,0.55c0.15-0.11,0.2-0.66,0.08-0.79C1132.44,586.56,1131.75,586.6,1131.15,587.5z
		 M1063.23,605.2c0.79,0.28,1.59,0.56,2.98,1.05C1065.37,604.26,1064.51,604.16,1063.23,605.2z M592.51,725.65
		c-0.33-0.04-0.66-0.09-1-0.13c-0.04,0.84-0.09,1.68-0.13,2.52c0.26,0.02,0.53,0.04,0.79,0.06
		C592.29,727.28,592.4,726.47,592.51,725.65z M1154.95,230.45c-0.72-0.46-1.09-0.78-1.52-0.92c-0.14-0.05-0.66,0.45-0.64,0.49
		c0.23,0.39,0.48,0.84,0.86,1.06C1153.82,231.17,1154.28,230.79,1154.95,230.45z M717.86,707.47c0.29-0.02,0.59-0.04,0.88-0.05
		c-0.05-0.74-0.11-1.48-0.16-2.22c-0.24,0.01-0.48,0.03-0.72,0.04C717.86,705.98,717.86,706.73,717.86,707.47z M598.44,828.26
		c-0.87-0.33-1.34-0.63-1.81-0.64c-0.27-0.01-0.83,0.54-0.78,0.7c0.12,0.41,0.46,0.82,0.82,1.07
		C596.78,829.47,597.26,829.03,598.44,828.26z M1199.28,596.92c-0.07,0.32-0.14,0.64-0.2,0.97c0.65,0.11,1.29,0.22,1.94,0.33
		c0.06-0.25,0.11-0.5,0.17-0.75C1200.55,597.29,1199.92,597.11,1199.28,596.92z M744.2,584.57c-1.85,0.39-1.85,0.39-1.29,1.87
		C743.35,585.8,743.69,585.31,744.2,584.57z M840.14,769.58c-0.57-0.44-0.89-0.75-1.28-0.94c-0.08-0.04-0.59,0.43-0.54,0.55
		c0.14,0.41,0.43,0.76,0.67,1.13C839.28,770.13,839.58,769.94,840.14,769.58z M1111.63,680.71c-0.42-0.44-0.64-0.87-0.93-0.91
		c-0.27-0.04-0.61,0.33-0.91,0.52c0.26,0.35,0.47,0.77,0.81,1.01C1110.7,681.4,1111.15,681,1111.63,680.71z M53.47,437.35
		c-0.56-0.43-0.89-0.78-1.29-0.94c-0.11-0.04-0.7,0.6-0.64,0.74c0.18,0.4,0.55,0.76,0.93,0.99
		C52.57,438.19,52.99,437.73,53.47,437.35z M1066.24,580.1c0.11-0.24,0.22-0.47,0.33-0.71c-0.59-0.26-1.18-0.52-1.77-0.77
		c-0.11,0.23-0.21,0.46-0.32,0.69C1065.06,579.57,1065.65,579.84,1066.24,580.1z M1119.96,685.02c0.05-0.3,0.11-0.61,0.16-0.91
		c-0.6-0.03-1.2-0.06-1.8-0.09c-0.02,0.22-0.05,0.45-0.07,0.67C1118.83,684.8,1119.4,684.91,1119.96,685.02z M46.57,438.06
		c0.34-0.67,0.68-1.03,0.63-1.3c-0.07-0.34-0.41-0.76-0.73-0.86c-0.19-0.06-0.84,0.46-0.81,0.61
		C45.76,436.94,46.1,437.32,46.57,438.06z M594.3,821.61c0.34-0.73,0.59-1.05,0.6-1.37c0.01-0.22-0.32-0.45-0.49-0.67
		c-0.28,0.23-0.72,0.43-0.78,0.7C593.58,820.54,593.92,820.89,594.3,821.61z M45.49,450.14c-0.47-0.36-0.81-0.68-1.2-0.88
		c-0.08-0.04-0.59,0.5-0.55,0.54c0.25,0.37,0.57,0.71,0.92,0.99C44.7,450.83,45.07,450.47,45.49,450.14z M50.52,431.93
		c0.32-0.7,0.61-1.03,0.53-1.23c-0.16-0.41-0.51-0.76-0.78-1.13c-0.23,0.18-0.67,0.41-0.64,0.52
		C49.74,430.52,50,430.91,50.52,431.93z M590.32,831.53c0.25-0.29,0.57-0.5,0.57-0.72c0-0.22-0.3-0.44-0.48-0.67
		c-0.25,0.23-0.51,0.46-0.76,0.69C589.85,831.04,590.04,831.24,590.32,831.53z M589.28,822.07c-0.41-0.3-0.79-0.64-0.84-0.6
		c-0.28,0.24-0.55,0.54-0.67,0.87c-0.04,0.1,0.48,0.57,0.57,0.53C588.66,822.72,588.9,822.41,589.28,822.07z M586.97,723.15
		c0.23,0.02,0.47,0.05,0.7,0.07c0-0.49,0-0.98,0-1.47c-0.14-0.01-0.29-0.03-0.43-0.04C587.14,722.19,587.06,722.67,586.97,723.15z
		 M1097.37,680.21c-0.55-0.25-0.86-0.45-1.2-0.51c-0.1-0.02-0.42,0.46-0.37,0.58c0.1,0.22,0.41,0.44,0.65,0.46
		C1096.66,680.76,1096.9,680.5,1097.37,680.21z M1136.62,588.66c-0.06,0.25-0.13,0.49-0.19,0.74c0.46,0.06,0.91,0.14,1.37,0.17
		c0.04,0,0.16-0.48,0.15-0.49C1137.51,588.92,1137.06,588.79,1136.62,588.66z M1106.85,581.98c0.32,0.22,0.57,0.53,0.78,0.5
		c0.24-0.03,0.45-0.35,0.67-0.54c-0.26-0.22-0.5-0.5-0.81-0.63C1107.4,581.27,1107.12,581.68,1106.85,581.98z M994.08,567.95
		c-0.11,0.41-0.24,0.66-0.21,0.89c0.02,0.13,0.38,0.36,0.44,0.32c0.21-0.14,0.52-0.4,0.49-0.56
		C994.76,568.4,994.43,568.25,994.08,567.95z M54.23,432.98c-0.32,0.45-0.62,0.69-0.59,0.88c0.04,0.24,0.32,0.54,0.56,0.61
		c0.16,0.05,0.64-0.3,0.62-0.38C54.73,433.76,54.51,433.48,54.23,432.98z M48.25,432.44c-0.29,0.48-0.57,0.73-0.54,0.92
		c0.05,0.24,0.33,0.54,0.56,0.6c0.17,0.04,0.63-0.33,0.6-0.43C48.8,433.21,48.55,432.93,48.25,432.44z M1015.96,571.27
		c-0.2,0.22-0.33,0.35-0.45,0.49c0.21,0.18,0.41,0.38,0.65,0.53c0.03,0.02,0.37-0.32,0.34-0.38
		C1016.37,571.67,1016.16,571.48,1015.96,571.27z M933.42,703.08c-0.35-0.25-0.55-0.45-0.78-0.53c-0.1-0.03-0.42,0.24-0.4,0.32
		c0.05,0.24,0.19,0.58,0.37,0.63C932.78,703.54,933.04,703.29,933.42,703.08z M50.39,439.52c-0.27,0.31-0.5,0.48-0.59,0.71
		c-0.04,0.1,0.21,0.45,0.33,0.44c0.24,0,0.49-0.16,0.73-0.26C50.73,440.17,50.6,439.93,50.39,439.52z M45.23,440.22
		c-0.31-0.34-0.47-0.59-0.7-0.72c-0.1-0.06-0.51,0.16-0.5,0.23c0.03,0.27,0.1,0.62,0.29,0.75C44.45,440.57,44.8,440.35,45.23,440.22
		z M1180.04,280.08c-0.25-0.09-0.5-0.19-0.74-0.28c-0.06,0.17-0.22,0.44-0.17,0.48c0.19,0.17,0.45,0.27,0.69,0.39
		C1179.88,280.5,1179.94,280.34,1180.04,280.08z M695.12,685.31c0.15-0.1,0.3-0.19,0.45-0.29c-0.12-0.14-0.29-0.43-0.35-0.41
		c-0.22,0.08-0.41,0.25-0.61,0.39C694.78,685.1,694.95,685.2,695.12,685.31z M229.57,345.58c-0.13,0.14-0.27,0.28-0.4,0.42
		c0.17,0.16,0.35,0.32,0.52,0.48c0.09-0.18,0.27-0.35,0.26-0.52C229.94,345.83,229.71,345.71,229.57,345.58z"/>
	<path class="st3" d="M-1.29,100.42c18.69-0.16,37.38-0.51,56.07-0.41c8.85,0.05,17.69,0.93,26.54,1.43
		c0.85,0.05,1.71,0.07,2.56,0.04c2.98-0.13,3.84,0.42,4.33,3.29c0.4,2.37,0.6,4.78,0.82,7.18c0.46,4.93,0.32,9.81-0.75,14.69
		c-0.51,2.32-0.44,4.77-0.55,7.17c-0.24,5.23-0.41,10.46-0.63,15.69c-0.15,3.56-0.35,7.11-0.53,10.66
		c-0.36,7.11-0.79,14.22-1.06,21.33c-0.2,5.23-0.15,10.46-0.27,15.69c-0.19,8.17-0.16,16.35-0.73,24.49
		c-0.64,9.1-0.52,18.17-0.18,27.26c0.09,2.3-0.03,4.63-0.34,6.9c-0.98,7.11-0.76,14.2-0.21,21.33c0.23,2.99-0.39,6.04-0.63,9.07
		c-0.36,4.49-0.78,8.97-1.06,13.46c-0.31,4.91-0.45,9.84-0.73,14.75c-0.05,0.92-0.43,1.83-0.63,2.75c-0.45,2.13-0.84,4.28-1.34,6.4
		c-0.19,0.79-0.42,1.69-0.95,2.26c-1.9,2.03-4.03,3.89-6.96,4.16c-4.35,0.41-8.72,0.72-13.08,0.83c-2.93,0.07-3.79-1.27-3.68-4.23
		c0.21-5.66,0.34-11.32,0.3-16.97c-0.01-1.74-0.32-3.64-1.1-5.17c-1.6-3.18-7.39-4.38-10.41-2.35c-1.59,1.07-2.36,2.63-2.48,4.54
		c-0.34,5.65-0.77,11.29-1.07,16.94c-0.05,1.01,0.37,2.04,0.53,3.07c0.12,0.76,0.18,1.52,0.26,2.28c-0.2,0.07-0.41,0.15-0.61,0.22
		c-0.42-0.5-1.14-0.97-1.21-1.52c-0.37-2.9-0.7-5.81-0.82-8.72c-0.15-3.65-0.08-7.31-0.11-10.96c-0.01-1.25-0.26-2.55,0-3.75
		c0.91-4.17,0.52-8.33,0.33-12.53c-0.17-3.86,0.05-7.75,0.32-11.62c0.15-2.17,1.63-3.3,4.5-3.69c2.91-0.4,5.58-1.29,8.06-2.86
		c1.64-1.04,2.67-2.3,2.74-4.31c0.09-2.62,0.43-5.22,0.51-7.84c0.28-8.49,0.56-16.98,0.71-25.47c0.26-15.21,0.4-30.41,0.64-45.62
		c0.04-2.72,0.44-5.43,0.53-8.15c0.13-4.07,0.58-8.11,0.25-12.23c-0.31-3.94,0.38-7.94,0.48-11.92c0.06-2.48-0.47-4.89-2.69-6.44
		c-3.27-2.29-6.94-3.34-10.88-2.14c-2.01,0.62-3.93,0.75-5.98,0.51c-1.69-0.2-3.42-0.32-5.1-0.15c-3.27,0.33-4.95,2.04-5.44,5.23
		c-0.11,0.72-0.12,1.46-0.13,2.2c-0.21,15.32-0.45,30.63-0.59,45.95c-0.26,28.85-0.46,57.71-0.69,86.56c-0.01,1.57,0,3.15-0.1,4.72
		c-0.22,3.3-1.46,4.49-4.51,4.42c-3.05-0.06-4.82-1.69-4.91-4.6c-0.06-2.1-0.03-4.2-0.01-6.3c0.06-7.24-0.2-14.49,0.25-21.71
		c1.02-16.35,1.05-32.7,1.11-49.06c0.03-8.18,0.44-16.35,0.62-24.53c0.24-11.12,0.43-22.23,0.63-33.35c0.02-1.05,0.01-2.1-0.1-3.14
		c-0.2-1.84-1.35-3.09-2.98-3.82c-3.1-1.4-7.23-0.19-9.02,2.74c-1.03,1.68-2.02,3.01-4.16,3.55c-0.94,0.24-1.61,1.73-2.28,2.73
		c-0.56,0.82-0.94,1.76-1.4,2.64c0-6.93,0-13.86,0-20.79c1.17,0.03,2.35,0.08,3.52,0.08c11.75-0.03,23.5-0.14,35.25-0.05
		c2.51,0.02,5.15,0.44,7.5,1.28c2.37,0.85,4.71,1.47,7.17,1.25c6.08-0.53,12.14-0.27,18.22,0.02c0.74,0.04,1.51,0.05,2.24-0.08
		c0.72-0.13,1.57-0.27,2.06-0.72c1.91-1.77,4.12-2.81,6.64-3.56c1.3-0.39,2.54-1.58,3.4-2.71c1.45-1.9,0.02-5.84-3.09-6.27
		c-4.02-0.55-3.99-0.73-4.6-4.69c-0.1-0.62-0.16-1.27-0.4-1.84c-0.92-2.22-2.28-4.18-4.83-4.61c-3.77-0.63-7.61-0.87-11.38-1.5
		c-3.53-0.6-7.01,0.05-10.51,0.08c-7.16,0.06-14.31,0.01-21.47-0.02c-4.8-0.02-9.6,0.05-14.4-0.15c-5.11-0.21-10.21-0.7-15.31-1.07
		C-1.29,112.6-1.29,106.51-1.29,100.42z"/>
	<path class="st3" d="M-1.29,27.99c5.31,0.49,10.63,0.96,15.93,1.47c7.86,0.76,15.71,1.56,23.57,2.32c10.19,1,20.39,2,30.58,2.96
		c5.31,0.5,10.65,0.76,15.94,1.42c6.21,0.77,6.65,1.25,6.24,7.38c-0.47,7.1-1.38,14.17-1.95,21.26c-0.23,2.91-0.42,5.9,0.02,8.75
		c0.89,5.79-1.82,9.66-6.19,12.88c-0.99,0.73-1.99,0.74-2.95,0.03c-0.68-0.51-1.33-1.08-1.86-1.72c-1.9-2.34-4.46-3.18-7.37-3.13
		c-3.41,0.05-6.81,0.23-10.22,0.37c-3.07,0.13-6.17,0.66-8.71-1.92c-0.65-0.66-1.93-0.91-2.95-0.99
		c-14.05-1.12-28.13-1.68-42.22-1.29c-2.64,0.07-5.26,0.8-7.88,1.23c0-2.52,0-5.04,0-7.56c7.05,0.03,14.09,0.01,21.14,0.11
		c11.95,0.17,23.9,0.35,35.85,0.67c5.12,0.14,10.22,0.71,15.33,0.96c3.08,0.15,6.19,0.31,9.24,0.03c2.55-0.23,4.18-2.09,4.28-4
		c0.13-2.4-1.49-4.84-3.96-5.46c-1.63-0.41-3.37-0.5-5.06-0.52c-4.48-0.05-8.97,0.13-13.45,0c-11.84-0.34-23.68-0.9-35.52-1.16
		C17.28,61.89,8,62.02-1.29,62C-1.29,50.66-1.29,39.33-1.29,27.99z"/>
	<path class="st3" d="M-1.29,281.19c1.12-0.33,2.23-0.71,3.36-0.98c2.38-0.56,3.41-0.01,3.83,2.42c0.31,1.83,0.32,3.74,0.29,5.61
		c-0.05,2.92-0.25,5.84-0.4,8.75c-0.21,4.16-0.51,8.33-0.63,12.49c-0.08,2.6,0.17,5.21,0.15,7.82c-0.04,4.68-0.07,9.37-0.3,14.05
		c-0.1,1.98-1.62,3.12-3.47,3.66c-0.9,0.26-1.89,0.24-2.84,0.35c0-7.14,0-14.28,0-21.42c1.44-0.06,2.48-0.61,2.47-2.19
		c-0.02-1.55-1.02-2.15-2.47-2.22C-1.29,300.09-1.29,290.64-1.29,281.19z"/>
	<path class="st3" d="M-1.29,179.15c1.65,0.89,3.36,1.69,4.93,2.71c0.58,0.38,1.28,1.46,1.1,1.91c-0.27,0.69-1.18,1.43-1.94,1.58
		c-1.31,0.26-2.72,0.09-4.09,0.1C-1.29,183.35-1.29,181.25-1.29,179.15z"/>
	<path class="st3" d="M-1.29,165.3c1.65,0.97,1.98,2.49,1.87,4.22c-0.08,1.2-0.68,1.87-1.87,2.07C-1.29,169.5-1.29,167.4-1.29,165.3
		z"/>
	<path class="st3" d="M330.26,152.69c-0.87,2.15-1.99,4.29,0.81,6.85c-1.42,0-2.16,0.21-2.65-0.05c-0.92-0.47-1.77-1.13-2.5-1.86
		c-0.78-0.78-1.58-1.22-2.48-0.44c-0.95,0.83-0.84,1.86-0.09,2.82c0.19,0.25,0.44,0.46,0.67,0.67c2.36,2.21,2.4,2.23,0.86,5.23
		c-0.53,1.03-0.39,3.08-2.07,2.67c-1.53-0.38-2.94-1.65-2.89-3.66c0.01-0.27-0.24-0.54-0.38-0.83c-2.31,1.67-2.76,3.11-1.98,5.41
		c0.23,0.66-0.03,1.48-0.08,2.45c0.37,0.44,0.93,1.06,1.45,1.71c0.19,0.24,0.29,0.55,0.6,1.16c-0.67,0.52-1.3,1.26-2.11,1.57
		c-0.93,0.37-2.61,0.04-2.91,0.59c-0.87,1.54-1.58,0.13-2.53,0.17c-0.05,1.5-0.75,2.44-2.41,2.75c-0.96,0.18-2.03,2.67-1.47,3.41
		c0.51,0.67,1.59,0.93,2.88,1.62c0.15,0.47,0.5,1.55,0.92,2.87c-1.58,0.43-3.08,0.84-3.9,1.06c-1.4,1.86-2.52,3.18-3.45,4.61
		c-0.81,1.24-1.55,2.55-0.27,4.03c0.37,0.42,0.5,1.11,0.55,1.7c0.1,0.99,0.12,2.01,0.05,3c-0.06,1.02-0.26,2.04-0.41,3.14
		c-1.05,0.24-1.94,0.45-2.83,0.65c-0.01,0.17-0.02,0.34-0.03,0.51c1.05,0.21,2.1,0.42,3.06,0.61c-0.08,1.24-0.16,2.45-0.25,3.81
		c0.9,0,1.57,0,2.45,0c-0.94,2.49-1.83,4.82-2.67,7.17c-0.21,0.57-0.46,1.28-0.29,1.8c0.59,1.8-0.11,3.51-0.1,5.22
		c0.01,2.61-1.35,3.79-3.37,4.78c-0.17,0.08-0.27,0.31-0.61,0.72c4.52,1.38,5.33,5.12,5.83,8.94c0.27,2.07,0.24,4.19,0.18,6.28
		c-0.02,0.78-0.36,1.62-0.76,2.32c-0.61,1.09-1.39,2.08-2.21,3.27c-0.75-0.65-1.52-1.33-2.41-2.1c-2.58,3.06-0.51,6.07-0.74,9.07
		c5.79,2.89,6.2,7.34,3.42,12.68c-0.17-0.12-0.63-0.25-0.75-0.53c-1.59-3.5-3.04-7.06-4.74-10.51c-0.86-1.75-1.79-3.69-4.2-3.68
		c0.57-1.74,1.22-3.31,1.6-4.95c0.47-2.02-0.64-3.14-2.93-3.42c0.79-4.19,0.39-7.85-3.88-9.9c-1.31,1.49-2.55,2.91-4.21,4.8
		c0.1,0.42,0.36,1.52,0.68,2.89c-1.53,0.5-1.94,1.83-2.11,3.49c-0.33,3.33-1.04,6.63,0.07,9.96c0.62,1.85,1.1,3.73,1.69,5.76
		c-0.86,0-1.97,0-3.18,0c-0.73,1.5-1.1,3-3.16,3.47c-2.56,0.59-4.84,0.3-7.18-0.56c-0.1-0.04-0.18-0.12-0.27-0.16
		c-5.22-2.28-6.98-6.45-6.58-11.74c0.22-2.81,0.45-5.64,1.03-8.4c0.3-1.46,1.18-2.89,2.1-4.13c1.44-1.95,1.53-1.87,0.1-3.68
		c-0.45-0.57-0.82-1.21-1.21-1.83c-1.1-1.69-2.55-1.91-3.85-0.41c-0.58,0.67-1,1.63-1.14,2.51c-0.76,4.97-1.38,9.96-2.11,14.94
		c-0.31,2.14-0.79,4.25-1.79,6.43c-0.36-0.58-0.67-1.19-1.08-1.73c-2.13-2.87-2.83-6.59-5.61-9.07c-2.7-6.12-3.39-12.27-0.61-18.59
		c1.55-3.53,8.09-6.71,12.33-4.54c0.47,0.24,0.97,0.46,1.48,0.59c1.48,0.38,2.44-0.38,3.2-1.52c0.72-1.08,0.31-1.96-0.44-2.84
		c-2.59-3.03-5.46-5.37-9.91-4.18c-1.41,0.38-2.21-0.35-2.7-1.58c-2.81-7.03-5.35-14.09-5.67-21.8c-0.33-7.95-1.67-15.85-1.14-23.84
		c0.19-2.93,0.67-5.84,0.83-8.76c0.13-2.4,0.02-4.81-0.05-7.22c-0.06-2.06-0.94-3.81-2.05-5.54c-0.94-1.46-1.51-3.15-2.37-4.99
		c1.41,0.25,2.46,0.78,3.15,0.48c0.88-0.38,1.88-1.32,2.09-2.18c0.51-2.12,0.91-4.36,0.72-6.5c-0.11-1.21-1.47-2.31-2.66-4.02
		c-0.04,0.24-0.07-0.3,0.13-0.75c1.35-2.9,1.98-5.93,2.21-9.12c0.36-5.08,3.78-8.98,8.78-10.44c0.92-0.27,1.93-0.35,2.76-0.79
		c0.79-0.42,1.73-1.06,2.02-1.82c0.66-1.75,1.24-3.62,1.36-5.47c0.15-2.39-0.07-4.82-0.34-7.2c-0.23-2.04-1.05-2.37-3.05-1.68
		c-1.61,0.56-3.22,1.19-4.88,1.46c-2.08,0.33-3.09-0.66-2.85-2.69c0.26-2.18,0.63-4.38,1.24-6.49c0.25-0.87,1.13-1.85,1.98-2.2
		c2.64-1.1,3.7-3.09,3.76-5.69c0.04-1.51,0.52-2.77,1.14-4.15c0.65-1.44,0.52-3.22,0.65-4.86c0.12-1.54-0.06-3.13,0.23-4.63
		c0.76-3.9-1.78-6.46-5.68-5.27c-6.02,1.83-11.29-0.99-13.42-6.94c-0.99-2.77-1.96-5.55-2.84-8.36c-0.16-0.52-0.09-1.44,0.24-1.69
		c0.51-0.37,1.55-0.64,1.99-0.37c0.95,0.58,1.98,1.4,2.38,2.36c0.68,1.62,0.92,3.42,1.33,5.15c0.28,1.18,0.52,2.36,0.95,4.34
		c1.16-1.31,1.86-2.01,2.45-2.79c2.25-2.98,2.62-3.14,6.13-2.27c0.41,0.1,0.82,0.25,1.24,0.3c1.17,0.14,1.95-0.38,1.88-1.55
		c-0.07-1.12-0.04-2.56-0.71-3.28c-2.41-2.63-3.51-6.23-6.74-8.28c-1.81-1.15-1.98-2.93-0.35-4.27c3.08-2.54,5.51-5.41,6.92-9.12
		c0.17-0.46,0.66-0.82,1.05-1.17c1.69-1.53,2.01-3.13,1.1-5.35c-1.22-2.99-0.66-6.06,0.32-8.99c0.25-0.05,0.51-0.09,0.76-0.14
		c0.3,0.56,0.8,1.1,0.85,1.67c0.04,0.57-0.44,1.16-0.58,1.77c-0.54,2.33,0.3,3.16,2.65,2.78c1.46-0.24,2.93-0.4,4.4-0.51
		c1.09-0.08,2.09-0.51,2.08-1.55c-0.01-1.17-0.49-2.36-0.93-3.49c-0.07-0.19-1.02-0.22-1.47-0.06c-0.75,0.26-1.43,0.73-2.54,0.75
		c0.98-1.71,1.97-3.42,2.86-4.96c0.54,0.03,0.67,0,0.75,0.05c4.55,3.04,6.12,2.81,9.62-1.43c0.54-0.65,1.11-1.29,1.54-2.01
		c0.65-1.07,1.63-2.2,1.63-3.3c0-0.86-1.32-1.69-1.96-2.6c-0.26-0.36-0.27-0.9-0.54-1.92c1.09,0.42,1.92,0.48,2.25,0.91
		c0.76,0.99,1.35,2.13,1.86,3.27c1.47,3.3,1.44,3.31,4.65,4.63c-0.33,0.54-0.73,1.02-0.95,1.57c-0.49,1.18-0.4,2.29,0.81,3.03
		c1.09,0.67,2.55,0.38,3.46-0.58c0.6-0.63,1.43-1.77,1.9-1.66c1.44,0.35,0.29,1.5,0.41,2.3c0.1,0.69,0.63,1.57,1.24,1.88
		c1.69,0.89,4.29,0.39,5.48-1.22c2.54-3.43,5.95-3.57,9.45-2.35c2.97,1.03,5.25,0,6.83-1.96c2.06-2.56,5.04-4.6,5.56-8.28
		c0.11-0.79,1.3-1.56,2.15-2.08c0.79-0.48,1.79-0.7,2.73-0.88c1.62-0.31,2.52-1.2,3.24-2.68c3.72-7.68,14.85-9.13,20.35-2.6
		c2.43,2.88,4.51,6.06,6.87,9.27c4.66-3.25,8.69-0.62,12.57,2.05c2.04,1.4,3.82,3.09,6.58,2.59c5.01,2.07,10.04,4.2,13.68,8.34
		c1.94,2.22,2.5,5.13,2.25,8.02c-0.21,2.57,0.55,4.14,2.9,5.65c3.27,2.11,6.04,4.95,7.26,9.18c1.86-0.1,3.76-0.03,5.6-0.34
		c2.53-0.43,3.7-1.86,4.05-4.54c0.48-3.67,2.32-6.48,5.44-8.5c1.97-1.28,3.96-1.31,6-0.03c2.95,1.85,4.78,4.2,3.85,7.84
		c-0.49,1.95,0.07,3.18,2.07,3.92c1.16,0.43,2.11,1.11,1.8,2.85c-0.36,2.01,0.64,2.51,2.6,1.63c0.28-0.13,0.56-0.27,0.98-0.47
		c1.51,1.08,3.11,2.12,4.57,3.3c2.53,2.04,2.97,4.64,1.54,7.97c-0.66,1.53-1.08,3.18-1.92,4.6c-0.6,1.01-1.58,1.99-2.63,2.5
		c-2.62,1.26-3.31,2.91-1.44,5.01c1.36,1.54,2.43,2.88,1.3,4.96c-0.17,0.32-0.04,0.83,0.04,1.24c0.6,3.18,1.09,6.39,1.88,9.53
		c0.55,2.2,2.2,3.76,3.97,5.19c3.21,2.58,6.45,5.15,9.44,7.96c1,0.93,1.57,2.53,1.86,3.92c0.7,3.37,2.78,5.88,5.05,8.23
		c1.4,1.45,2.36,2.9,2.46,4.92c0.16,3.17,1.59,5.32,5,6.02c1.33,0.27,2.58,0.98,3.85,1.54c2.71,1.21,4.4,3.01,4.59,6.2
		c0.19,3.12,0.46,6.36,1.53,9.26c1.05,2.85,2.53,5.88,5.86,7.07c1.56,0.56,2.5,1.32,2.71,3.05c0.22,1.79,1.45,3.33,3.13,3.66
		c2.41,0.48,3.42,1.82,3.74,4.07c3.11,0.25,3.91,2.65,4.82,4.87c0.25,0.61,0.32,1.67-0.04,2.09c-1.3,1.5-0.96,3.5-1.93,5.15
		c-0.61,1.03-0.25,2.97,0.31,4.22c0.79,1.76,0.74,2.95-0.92,4.02c-0.28,0.18-0.35,0.67-0.83,1.68c1.44-0.73,2.28-1.17,3.15-1.61
		c-0.11,2.12-0.44,3.87-4.06,5.11c0.13,2.09,0.27,4.26,0.34,5.43c-2.12,2.29-3.76,4.05-5.49,5.92c0.71,0.75,1.12,1.18,1.81,1.91
		c-0.26,0.12-0.53,0.29-0.82,0.36c-1.9,0.39-2.63,1.45-2.38,3.4c0.14,1.11-0.2,2.28-0.34,3.58c0.74,0.35,1.45,0.68,2.19,1.03
		c-0.18,0.21-0.31,0.48-0.42,0.48c-3.13-0.12-5.78-1.14-7.7-3.74c-0.73-0.99-1.8-1.73-2.56-2.7c-0.54-0.69-1.16-1.59-1.14-2.39
		c0.04-1.64-0.66-2.74-1.73-3.87c-0.84-0.9-1.28-2.15-2.1-3.09c-2.45-2.82-1.44-6.62-2.95-9.72c-0.26-0.53,0.17-1.66,0.65-2.19
		c1.23-1.34,1.24-2.74,0.91-4.39c-0.74-3.67-1.16-7.41-2.02-11.06c-0.67-2.84-2.1-5.41-4.13-7.62c-1.78-1.93-3.45-3.95-5.18-5.92
		c-0.62-0.71-1.22-1.45-1.92-2.08c-1.91-1.71-4.37-2.84-5.04-5.74c-0.19-0.81-1.73-1.38-2.72-1.92c-0.73-0.4-2.06-0.36-2.32-0.89
		c-1.71-3.56-5.85-2.9-8.41-5.21c-0.36,0.82-0.6,1.37-0.87,1.98c-0.31-0.06-0.66-0.03-0.89-0.18c-0.53-0.35-0.99-0.79-1.48-1.2
		c-2.81-2.39-5.12-2.29-7.73,0.32c-0.21,0.21-0.49,0.36-0.9,0.65c-0.64-0.68-1.26-1.34-1.87-1.98c-2.36,1.27-4.63,2.5-7.16,3.86
		c-0.55-1.83-1.75-2.51-3.58-2.88c-1.75-0.35-3.31-1.61-4.95-2.47c-0.92-0.48-1.73-1-2.98-0.72c-0.65,0.15-1.64-0.68-2.32-1.25
		c-0.79-0.66-1.76-0.92-2.2-0.11c-0.96,1.78-2.36,1.29-3.79,1.14c-0.38-0.04-0.79,0.21-1.26,0.35c-0.4-0.68-0.75-1.27-0.9-1.52
		c-1.64,0.08-2.96,0.14-4.28,0.21c-0.52,0.03-1.12-0.1-1.53,0.12c-2.28,1.18-4.53,2.39-7.24,1.37c-0.98,0.96-1.99,1.37-3.07,0.13
		c-1.07,0.85-2.1,0.11-3.17,0.02c-1.04-0.08-2.39,0.3-3.17,0.96c-1.52,1.3-3.08,1.71-5,1.4c-1.25-0.2-2.6-0.44-3.35,1.55
		c1.36,0.47,2.82,0.74,3.98,1.45c1.22,0.75,2.18,1.93,3.5,3.17c-0.75,0.53-1.59,1.34-1.77,1.21c-1.56-1.07-3.26-0.5-5.12-0.31
		c0-1.15,0-2.01,0-2.83c-2.91-0.85-5.61-1.63-8.36-2.44c-0.43,2.2-0.64,4.5,2.34,6.23c-1.04,0.85-1.83,1.5-2.76,2.26
		c-0.61-0.4-1.2-0.8-1.81-1.19c-1.25-0.8-2.38-0.86-3.32,0.47c-1.22,1.73-2.94,2.16-5,1.95c-1.47-0.15-2.97-0.03-4.53-0.03
		c-0.12,0.47-0.26,1.04-0.43,1.71c-1.01,0.05-1.94,0.1-3.59,0.19c1.16,0.91,1.86,1.58,2.67,2.07c2.2,1.32,2.25,1.59,0.35,3.26
		c-0.23,0.2-0.42,0.45-0.77,0.82c0.64,0.55,1.24,1.06,1.94,1.66c-0.55,1.07-1.06,2.07-1.64,3.22c0.43,0.36,0.77,0.73,1.18,0.98
		c0.42,0.25,0.9,0.4,1.81,0.78c-0.83,0.43-1.32,0.91-1.63,0.82c-2.92-0.86-4.61,0.74-6.21,2.95c0.75,2.12-0.45,4.89,2.05,6.77
		c-1.48-0.03-2.28-0.82-3.05-1.85c-1.14-1.53-2.42-2.97-4.59-3.06c-0.23-1.1-0.55-2.2-0.67-3.32c-0.09-0.89,1.92-1.94-0.21-2.68
		c-2.32,0.71-1.62,2.76-1.69,4.2C327.54,152.34,329.1,152.49,330.26,152.69z M432.26,43.57c1.48,0.02,2.8-0.92,3-2.23
		c0.22-1.49-0.51-2.32-1.96-2.73c-1.22-0.34-2.37-0.96-3.6-1.21c-1.22-0.25-2.53-0.37-3.75-0.19c-1.53,0.23-2.63,1.76-2.59,3.15
		c0.04,1.47,1.2,1.95,2.32,2.18C427.83,42.97,430.04,43.23,432.26,43.57z M309.05,173.96c0.39-1.57,0.09-2.62-1.17-2.77
		c-1.3-0.15-2.24,0.64-2.87,2.32C306.56,173.69,307.82,173.83,309.05,173.96z M299.67,240.19c2.1-2.88,2.16-3.09,1.47-4.9
		C298.5,237.44,298.49,237.46,299.67,240.19z M478.29,163.23c-1.61,0.65-2.45,1.43-2.16,2.72c0.22,0.98,0.98,1.59,2.29,0.95
		c0.04-0.57,0.13-1.17,0.12-1.77C478.53,164.64,478.42,164.14,478.29,163.23z M250.9,56.56c0.56-0.4,1.26-0.71,1.61-1.24
		c0.27-0.4,0.09-1.1,0.11-1.66c-0.66,0.09-1.51-0.03-1.93,0.33C249.94,54.65,249.84,55.59,250.9,56.56z M479.7,169.47
		c-0.61,0.62-1.08,1.09-1.54,1.56c0.53,0.37,1.08,1.06,1.58,1.03c0.51-0.04,0.97-0.78,1.45-1.22
		C480.77,170.45,480.35,170.07,479.7,169.47z M425.71,26.04c0.05-2.87-1.08-3.62-3.98-2.82C423.09,24.18,424.3,25.04,425.71,26.04z
		 M425.13,49c0.59-1.18,0.53-1.99-0.6-2.44c-0.21-0.08-0.72,0.1-0.8,0.28C423.21,47.98,423.89,48.52,425.13,49z M388.71,115.38
		c1.2-2.22,1.17-2.31-1.29-4.1C387.84,112.62,388.19,113.72,388.71,115.38z M276.13,262.34c0.34-0.63,0.67-0.97,0.64-1.27
		c-0.03-0.28-0.45-0.52-0.69-0.78c-0.24,0.29-0.63,0.56-0.67,0.88C275.38,261.44,275.75,261.75,276.13,262.34z M338.75,145.15
		c-0.04-0.21-0.09-0.42-0.13-0.63c-0.82,0.17-1.63,0.34-2.45,0.52c0.42,0.5,0.81,0.66,1.17,0.6
		C337.83,145.56,338.29,145.32,338.75,145.15z M275.35,226.5c1.06-1.14,1.06-1.14-0.13-2.02
		C275.27,225.27,275.31,225.89,275.35,226.5z M421.45,45.94c0.3-0.32,0.7-0.59,0.66-0.73c-0.1-0.3-0.41-0.53-0.64-0.79
		c-0.17,0.24-0.45,0.46-0.48,0.71C420.97,45.36,421.24,45.6,421.45,45.94z M304.55,170.05c-0.41-0.32-0.66-0.61-0.97-0.72
		c-0.12-0.04-0.59,0.43-0.56,0.48c0.17,0.31,0.41,0.61,0.71,0.81C303.8,170.67,304.14,170.34,304.55,170.05z M492.89,165.07
		c-0.3-0.22-0.54-0.52-0.73-0.49c-0.21,0.03-0.52,0.34-0.54,0.55c-0.02,0.17,0.35,0.53,0.52,0.52
		C492.36,165.62,492.57,165.33,492.89,165.07z"/>
	<path class="st3" d="M357.72,215.83c-2.24-2.43-4.11-4.46-6.22-6.74c1.09-0.54,1.73-0.84,2.35-1.17c2.23-1.2,4.53-2.3,6.65-3.67
		c1.57-1.01,3.1-1.7,5.02-1.75c2.23-0.06,4.45-0.47,6.68-0.58c1.23-0.06,2.49,0.14,3.73,0.26c0.42,0.04,0.84,0.24,1.25,0.23
		c4.35-0.1,8.7-0.24,13.06-0.32c1.05-0.02,2.15-0.04,3.14,0.23c2.31,0.63,4.56,0.98,6.92,0.24c0.65-0.2,1.44,0.03,2.44,0.08
		c-0.54-1.07-1.03-2.02-1.58-3.11c2.75-1.52,5.51-1.99,8.41-1.6c1.87,0.25,3.64,0.3,5.1-1.27c2.22,0.97,4.41,1.88,6.75,0.58
		c0.17-0.1,0.46-0.16,0.62-0.08c2.7,1.32,4.93,0.02,7.2-1.16c0.36-0.19,0.88-0.33,1.23-0.22c2.96,0.96,5.66-0.14,8.41-0.94
		c1.55-0.45,2.89-0.46,3.76,1.31c0.32,0.64,1.39,1.48,1.91,1.36c2.02-0.48,3.1,1.14,4.62,1.58c2.18,0.64,4.62,0.92,6.87,0.67
		c2.31-0.26,4.51-0.95,6.85-0.08c0.62,0.23,1.46-0.07,2.4-0.15c1.13,3.28,3.8,2.73,6.3,2.23c3.03-0.61,6.04-1.35,8.98-2.28
		c1.88-0.59,3.1-0.14,4.02,1.44c1.59,2.72,3.35,5.37,4.67,8.21c0.56,1.2,0.58,2.92,0.18,4.21c-1.68,5.42-3.36,10.84-2.84,16.59
		c0.39,4.36-0.9,8.25-2.86,12.02c-0.18,0.35-0.5,0.71-0.84,0.89c-2.73,1.37-3.57,3.69-3.91,6.53c-0.17,1.48-1.15,2.88-1.8,4.3
		c-0.67,1.45-2,1.29-3.4,1.02c0,1.21,0.02,2.22,0,3.23c-0.06,2.17-0.84,2.66-2.79,1.77c-2.21-1.02-2.21-1.02-4.71-0.51
		c-1.02-2.06-2.78-2.74-5.17-2.39c-1.34,0.19-2.76-0.12-4.14-0.21c-2.84-0.17-4.88-1.41-6.63-3.74
		c-4.76-6.35-8.81-13.09-12.69-19.98c-0.8-1.42-2.65-2.3-4.08-3.34c-0.39-0.28-1.16-0.49-1.52-0.3c-2.27,1.21-5.23,1.76-6.21,4.46
		c-1.99,5.48-5.6,10-9.58,13.95c-4.06,4.03-9.2,7.01-13.89,10.42c-0.94,0.68-1.95,1.31-3,1.79c-1.43,0.66-2.9,1.41-4.43,1.69
		c-2.51,0.45-5.08,0.61-7.63,0.77c-2.79,0.17-5.42-0.03-7.96-1.65c-2.17-1.38-4.93-1.59-7.32-2.81c-3.37-1.71-6.89-2.9-9.58-5.9
		c-1.27-1.42-2.64-2.43-2.97-4.44c-0.09-0.58-1.11-1.3-1.81-1.45c-3.31-0.7-5.74-2.46-7.68-5.15c-0.51-0.7-1.71-1.11-2.67-1.28
		c-3.98-0.71-6.83-2.72-8.44-6.43c-0.52-1.21-0.52-2.15,0.38-3.17c0.83-0.93,1.5-1.99,2.26-2.98c1.26-1.64,2.23-3.49,4.69-3.94
		c1.12-0.21,2-1.48,3.09-2.09c1.92-1.08,3.95-1.97,5.87-3.06C356.07,217.43,356.77,216.63,357.72,215.83z"/>
	<path class="st3" d="M50.76,12.16c-0.74,1.92-1.99,1.81-3.14,1.95c-2.74,0.33-5.48,0.7-8.23,1.01c-1.06,0.12-2.13,0.26-3.18,0.17
		c-4.36-0.36-8.71-0.78-13.06-1.22c-3.1-0.31-4.03-1.15-3.99-4.17c0.12-9.12,0.38-18.24,0.59-27.36c0.01-0.42,0.06-0.84,0.07-1.26
		c0.25-8.7,0.38-17.41,0.79-26.1c0.38-7.85,1.14-15.68,1.6-23.53c0.25-4.4,0.16-8.81,0.34-13.21c0.08-1.95,0.44-3.89,0.69-5.95
		c11.1,0,21.82,0,32.74,0c0,1.04,0.17,1.79-0.03,2.43c-1.49,4.96-1.05,9.96-0.34,14.95c0.6,4.23-0.11,8.39-0.78,12.48
		c-1.02,6.17-0.87,12.27-0.58,18.46c0.19,3.95-0.23,7.95-0.59,11.9c-0.21,2.28-1.29,2.92-3.74,2.82c-5.63-0.22-7.81,2.17-7.15,7.84
		c0.08,0.73,0.1,1.46,0.08,2.2c-0.08,4.16-0.12,8.33-0.31,12.49c-0.07,1.67-0.49,3.31-0.72,4.98c-0.63,4.67,1.1,7.07,5.77,8.17
		C48.59,11.46,49.57,11.8,50.76,12.16z"/>
	<path class="st3" d="M93.67-87.36c-0.3,2.89-0.59,5.66-0.88,8.43c-0.48,4.67-1.14,9.32-0.65,14.05c0.18,1.77,0.33,3.59,0.11,5.34
		c-0.88,6.94,0.9,13.77,0.68,20.67c-0.14,4.5,0.25,9.06-0.37,13.49c-0.58,4.1-2.06,8.1-3.41,12.06c-0.6,1.77-2.46,2.12-4.63,1.58
		c-2.05-0.51-4.14-1.09-6.23-1.19c-2.76-0.14-4.68,1.45-5.22,4.13C72.7-6.98,72.57-5.08,72.5-3.2c-0.23,6.18-0.49,12.37-0.52,18.55
		c-0.02,3.53-1.68,4.53-5.27,3.57c-1.92-0.52-3.73-1.54-5.47-2.54c-2.28-1.33-4.42-2.9-6.65-4.3c-0.97-0.61-1.3-1.39-0.96-2.4
		c0.83-2.44,1.06-5.01,3.14-7.08c2.32-2.32,3.02-5.47,2.68-8.76c-0.1-0.93-0.31-1.92-0.09-2.79c1.11-4.2,1.13-8.54,0.93-12.76
		c-0.14-3.11,0.73-5.97,0.84-8.96c0.23-6.05,0.08-12.14,0.78-18.14c0.62-5.27-0.8-10.15-1.39-15.21C60.1-67.6,61-71.31,61.15-74.96
		c0.12-3.02,0.18-6.06-0.05-9.06c-0.22-3.04,0-3.61,3.11-3.63c9.18-0.05,18.36,0.01,27.55,0.04C92.27-87.62,92.79-87.48,93.67-87.36
		z"/>
	<path class="st3" d="M1283.94,742.29c-0.47-1.89-1.89-2.28-3.33-2.69c-1.93-0.55-3.81-1.21-5.06-3.4c0.84-0.32,1.46-0.74,2.09-0.77
		c3.07-0.14,6.14-0.17,9.21-0.23c4.03-0.09,5.6,2.05,4.17,5.79c-0.19,0.49-0.81,0.89-1.33,1.16c-0.61,0.32-1.32,0.46-2.78,0.94
		c1.39,0.74,2.23,1.05,2.88,1.58c0.51,0.41,1.17,1.14,1.09,1.62c-0.09,0.54-0.87,1.11-1.48,1.37c-0.53,0.23-1.28,0.16-1.88,0.01
		c-1.65-0.4-3.32-0.81-4.89-1.43c-0.69-0.27-1.5-1.02-1.61-1.66c-0.08-0.44,0.92-1.12,1.51-1.59
		C1282.91,742.66,1283.42,742.53,1283.94,742.29z"/>
	<path class="st3" d="M290.24,287.41c-0.74-2.41-2.82-4.63-1.22-7.63C290.62,281.44,291.11,284.02,290.24,287.41z"/>
	<path class="st3" d="M271.87-2.02c-1.2-1.26-1.68-2.5-0.38-3.62c0.8-0.69,1.84-0.33,2.45,0.58C274.62-4.07,274.12-3.32,271.87-2.02
		z"/>
	<path class="st3" d="M265.91,273.11c3.13-1.81,3.99-1.72,5.46,0.46C269.54,274.56,267.88,274.4,265.91,273.11z"/>
	<path class="st3" d="M289.52,271.22c-2.33,0.53-3.93,0.65-5.11-1.28C286.44,269.43,286.44,269.43,289.52,271.22z"/>
	<path class="st3" d="M1232.1,724.66c-1.63,0.67-2.74,0.74-3.66-0.5C1229.91,722.86,1229.91,722.86,1232.1,724.66z"/>
	<path class="st3" d="M363.03,129.23c-0.94-1.48-0.94-1.48,0.86-2.57C363.56,127.64,363.33,128.32,363.03,129.23z"/>
	<path class="st3" d="M279.87,284.04c0,0.92,0,1.52,0,2.63C278.72,285.51,278.71,284.91,279.87,284.04z"/>
	<path class="st3" d="M312.01,183.22c-0.24-0.34-0.52-0.67-0.7-1.04c-0.03-0.07,0.35-0.33,0.54-0.5c0.26,0.36,0.52,0.72,0.79,1.07
		C312.43,182.91,312.22,183.07,312.01,183.22z"/>
	<path class="st3" d="M319.08,177.47c0.59,0.14,1.19,0.28,1.78,0.41c-0.04,0.16-0.07,0.32-0.11,0.48c-0.6-0.13-1.19-0.25-1.79-0.38
		C319,177.81,319.04,177.64,319.08,177.47z"/>
	<path class="st3" d="M884.47,433.77c-0.45-0.04-0.81,0.03-0.94-0.1c-0.13-0.14-0.07-0.49-0.02-0.73c0.01-0.05,0.43-0.11,0.51-0.02
		C884.2,433.09,884.27,433.36,884.47,433.77z"/>
	<path class="st3" d="M268.5-2.97c-0.07,0.18-0.13,0.35-0.2,0.53c-0.18-0.15-0.39-0.29-0.53-0.48c-0.03-0.04,0.21-0.27,0.32-0.41
		C268.24-3.21,268.37-3.09,268.5-2.97z"/>
	<path class="st3" d="M288.42,243.43c-0.13,0.12-0.25,0.33-0.38,0.33c-0.17,0.01-0.34-0.15-0.51-0.24c0.16-0.16,0.29-0.36,0.48-0.46
		C288.06,243.04,288.27,243.29,288.42,243.43z"/>
	<path class="st3" d="M296.59,339.76c0.22,0.14,0.46,0.21,0.48,0.33c0.03,0.16-0.04,0.4-0.16,0.52c-0.07,0.08-0.31,0-0.47-0.01
		C296.49,340.33,296.54,340.07,296.59,339.76z"/>
	<path class="st3" d="M1049.56,482.56c-0.5,0.21-0.82,0.44-1.13,0.44c-0.19,0-0.37-0.37-0.55-0.58c0.29-0.2,0.56-0.48,0.88-0.57
		C1048.9,481.82,1049.15,482.19,1049.56,482.56z"/>
</g>
<rect x="-39" y="-56" class="st4" width="1343" height="917"/>
</svg>
